<svg width="433" height="283" viewBox="0 0 433 283" fill="none" xmlns="http://www.w3.org/2000/svg">
<path d="M41.252 46.5979V268.802C41.252 276.165 47.2082 282.121 54.5566 282.121H320.493C327.841 282.121 333.797 276.165 333.797 268.802V46.5979C333.797 39.2495 327.841 33.2932 320.493 33.2932H54.5566C47.2082 33.2932 41.252 39.2495 41.252 46.5979Z" fill="#E9E9FF"/>
<path d="M54.5566 33.2932H320.478C327.827 33.2932 333.783 39.2638 333.783 46.5979V60.0031H41.252V46.5979C41.252 39.2495 47.2226 33.2932 54.5566 33.2932Z" fill="#7F60FF"/>
<path d="M276.432 46.6554C276.432 48.8657 274.638 50.6598 272.428 50.6598C270.217 50.6598 268.423 48.8657 268.423 46.6554C268.423 44.4452 270.217 42.6511 272.428 42.6511C274.638 42.6511 276.432 44.4452 276.432 46.6554Z" fill="#D8D7FF"/>
<path d="M294.561 46.6554C294.561 48.8657 292.767 50.6598 290.557 50.6598C288.347 50.6598 286.553 48.8657 286.553 46.6554C286.553 44.4452 288.347 42.6511 290.557 42.6511C292.767 42.6511 294.561 44.4452 294.561 46.6554Z" fill="#FF9B71"/>
<path d="M312.699 46.6554C312.699 48.8657 310.905 50.6598 308.695 50.6598C306.484 50.6598 304.69 48.8657 304.69 46.6554C304.69 44.4452 306.484 42.6511 308.695 42.6511C310.905 42.6511 312.699 44.4452 312.699 46.6554Z" fill="#43C49D"/>
<path d="M205.408 161.316C204.719 157.613 203.169 154.226 201.002 151.341C198.935 148.585 196.266 146.289 193.209 144.624C189.822 142.773 185.932 141.725 181.799 141.696C168.465 141.639 157.6 152.389 157.543 165.722C157.543 166.138 157.543 166.555 157.572 166.957C157.658 168.779 157.945 170.545 158.404 172.238C158.72 173.372 159.122 174.477 159.581 175.554C159.854 176.185 160.155 176.802 160.5 177.405C164.561 184.854 172.469 189.935 181.569 189.978C194.07 190.035 204.418 180.563 205.681 168.363C205.767 167.559 205.81 166.77 205.81 165.938C205.81 164.344 205.667 162.809 205.38 161.302L205.408 161.316ZM181.598 185.701C174.608 185.672 168.465 182.041 164.949 176.558C164.461 175.826 164.045 175.051 163.671 174.262C163.097 173.013 162.638 171.693 162.322 170.329C161.978 168.851 161.806 167.315 161.82 165.737C161.82 165.234 161.849 164.732 161.877 164.244C162.695 153.968 171.307 145.916 181.784 145.959C184.296 145.959 186.693 146.447 188.903 147.308C192.132 148.557 194.931 150.638 197.098 153.264C199.237 155.905 200.715 159.077 201.289 162.579C201.476 163.655 201.562 164.789 201.562 165.923C201.562 167.071 201.447 168.191 201.26 169.282C199.624 178.654 191.429 185.744 181.612 185.701H181.598Z" fill="#BDB8FF"/>
<path d="M181.77 145.815C192.821 145.873 201.734 154.857 201.691 165.923C201.633 176.974 192.649 185.887 181.583 185.844C170.532 185.787 161.619 176.802 161.662 165.736C161.719 154.685 170.704 145.772 181.77 145.815ZM199.064 165.909C199.107 156.307 191.371 148.485 181.77 148.442C172.168 148.399 164.346 156.135 164.303 165.736C164.26 175.338 171.996 183.16 181.597 183.203C191.199 183.246 199.021 175.51 199.064 165.909Z" fill="#7F60FF"/>
<path d="M181.77 148.212C191.501 148.255 199.352 156.178 199.309 165.909C199.266 175.64 191.344 183.491 181.613 183.448C171.882 183.404 164.031 175.482 164.074 165.751C164.117 156.02 172.04 148.169 181.77 148.212Z" fill="#E9E9FF"/>
<path d="M184.527 158.13C186.493 158.89 187.426 160.57 187.426 162.967V163.325H184.972C184.972 162.005 184.642 161.029 183.967 160.455L182.891 164.861C185.976 165.363 187.584 166.569 187.569 169.124V169.31C187.569 172.224 185.445 174.004 181.785 173.989C181.398 173.989 181.039 173.961 180.68 173.932L180.02 176.673H178.025L178.814 173.458C176.819 172.626 175.786 170.932 175.8 168.693V168.55H178.255C178.255 169.712 178.628 170.602 179.345 171.162L180.479 166.512C177.307 165.966 175.987 164.631 175.987 162.378V162.192C175.987 159.35 178.298 157.642 181.714 157.671C182.029 157.671 182.345 157.699 182.632 157.728L183.292 155.001H185.287L184.527 158.144V158.13ZM180.953 164.545L182.101 159.78C181.986 159.752 181.843 159.752 181.714 159.752H181.613C179.848 159.752 178.47 160.584 178.47 162.048V162.163C178.47 163.397 179.087 164.172 180.939 164.531L180.953 164.545ZM185.029 169.411V169.296C185.029 167.918 184.225 167.201 182.388 166.827L181.154 171.879C181.34 171.908 181.541 171.908 181.728 171.908H181.828C183.709 171.908 185.015 171.004 185.015 169.411H185.029Z" fill="#733CFF"/>
<path d="M133.857 201.63V141.711H142.267L128.905 125.239L115.543 141.711H124.427V201.63C124.427 213.95 134.79 223.978 147.52 223.978H215.981V214.853H147.52C139.985 214.853 133.857 208.922 133.857 201.63Z" fill="#7F60FF"/>
<path d="M244.57 191.546V130.044C244.57 117.724 234.208 107.696 221.477 107.696H153.016V116.821H221.477C229.012 116.821 235.141 122.752 235.141 130.044V191.546H226.501L239.863 208.019L253.225 191.546H244.585H244.57Z" fill="#7F60FF"/>
<path d="M427.021 145.658H282.076C278.961 145.658 276.436 148.183 276.436 151.298V240.886C276.436 244.001 278.961 246.527 282.076 246.527H427.021C430.136 246.527 432.662 244.001 432.662 240.886V151.298C432.662 148.183 430.136 145.658 427.021 145.658Z" fill="#998DFF"/>
<path d="M301.18 207.158H292.009V223.85H301.18V207.158Z" fill="white"/>
<path d="M320.499 191.571H311.328V223.836H320.499V191.571Z" fill="#733CFF"/>
<path d="M339.818 213.545H330.646V223.836H339.818V213.545Z" fill="#BDB8FF"/>
<path d="M359.137 192.964H349.965V223.836H359.137V192.964Z" fill="white"/>
<path d="M378.453 175.999H369.282V223.85H378.453V175.999Z" fill="#733CFF"/>
<path d="M397.774 163.756H388.603V223.85H397.774V163.756Z" fill="#BDB8FF"/>
<path d="M417.09 183.419H407.919V223.85H417.09V183.419Z" fill="white"/>
<path d="M301.177 226.692H292.021V228.428H301.177V226.692Z" fill="#BDB8FF"/>
<path d="M320.479 226.692H311.322V228.428H320.479V226.692Z" fill="#BDB8FF"/>
<path d="M339.8 226.692H330.643V228.428H339.8V226.692Z" fill="#BDB8FF"/>
<path d="M359.116 226.692H349.959V228.428H359.116V226.692Z" fill="#BDB8FF"/>
<path d="M378.437 226.692H369.28V228.428H378.437V226.692Z" fill="#BDB8FF"/>
<path d="M397.753 226.692H388.582V228.428H397.753V226.692Z" fill="#BDB8FF"/>
<path d="M417.072 226.692H407.916V228.428H417.072V226.692Z" fill="#BDB8FF"/>
<g clip-path="url(#clip0_110_1535)">
<path d="M96.9528 50.6633L101.382 39.1107C101.868 37.8362 101.489 36.3913 100.423 35.5269L90.82 27.741L88.8767 15.5196C88.6622 14.1694 87.6022 13.1157 86.252 12.9012L74.0306 10.9579L66.251 1.34859C65.3929 0.282296 63.9165 -0.0962713 62.6736 0.389557L51.1147 4.8251L39.562 0.395866C38.2812 -0.0962713 36.849 0.294915 35.9846 1.3549L28.1987 10.9642L15.9773 12.9075C14.6334 13.122 13.5734 14.182 13.3589 15.5259L11.4156 27.7473L1.80629 35.5332C0.746301 36.3913 0.361424 37.8362 0.847252 39.1107L5.27649 50.6633L0.847252 62.2159C0.355115 63.4904 0.746301 64.9352 1.80629 65.7933L11.4156 73.5729L13.3589 85.7943C13.5734 87.1445 14.6271 88.2045 15.9773 88.419L28.1987 90.3623L35.9846 99.9653C36.849 101.038 38.2938 101.417 39.5684 100.924L51.1147 96.5014L62.6673 100.931C63.0332 101.069 63.4118 101.139 63.7967 101.139C64.7241 101.139 65.639 100.729 66.251 99.9653L74.0306 90.3623L86.252 88.419C87.6022 88.2045 88.6622 87.1445 88.8767 85.7943L90.82 73.5729L100.423 65.7933C101.489 64.9289 101.868 63.4904 101.382 62.2159L96.9528 50.6633Z" fill="url(#paint0_linear_110_1535)"/>
<path fill-rule="evenodd" clip-rule="evenodd" d="M66.1476 59.3642C65.8442 59.0602 65.4211 58.871 64.9552 58.871C64.4893 58.871 64.0662 59.0602 63.7628 59.3642C63.4594 59.6691 63.269 60.0902 63.269 60.5552C63.269 61.0202 63.4594 61.4421 63.7628 61.7462C64.0662 62.051 64.4896 62.2395 64.9552 62.2395C65.4208 62.2395 65.8442 62.051 66.1476 61.7462C66.451 61.4423 66.6416 61.0211 66.6416 60.5552C66.6416 60.0893 66.451 59.6691 66.1476 59.3642ZM64.9553 57.4198C65.8231 57.4198 66.6063 57.7713 67.1707 58.3384C67.7424 58.9057 68.0881 59.6895 68.0881 60.5551C68.0881 61.4206 67.7424 62.2054 67.1707 62.7727C66.6063 63.3398 65.8232 63.6912 64.9553 63.6912C64.0875 63.6912 63.3044 63.3398 62.7399 62.7727C62.1686 62.2055 61.8228 61.4209 61.8228 60.5551C61.8228 59.6893 62.1686 58.9055 62.7399 58.3384C63.3044 57.7713 64.0875 57.4198 64.9553 57.4198ZM74.861 68.0826C74.5576 67.7778 74.1345 67.5893 73.6686 67.5893C73.2027 67.5893 72.7796 67.7778 72.4762 68.0826C72.1728 68.3868 71.9824 68.808 71.9824 69.2736C71.9824 69.7392 72.1728 70.1598 72.4762 70.4646C72.7796 70.7686 73.203 70.9578 73.6686 70.9578C74.1342 70.9578 74.5576 70.7686 74.861 70.4646C75.1644 70.1598 75.355 69.7386 75.355 69.2736C75.355 68.8086 75.1644 68.3868 74.861 68.0826ZM73.6687 66.1375C74.5364 66.1375 75.3197 66.4889 75.8843 67.056C76.4556 67.6234 76.8014 68.4071 76.8014 69.2736C76.8014 70.14 76.4556 70.9231 75.8843 71.4904C75.3197 72.0578 74.5364 72.409 73.6687 72.409C72.801 72.409 72.0178 72.0578 71.4533 71.4904C70.882 70.9233 70.5362 70.1394 70.5362 69.2736C70.5362 68.4078 70.882 67.6234 71.4533 67.056C72.0178 66.4889 72.8009 66.1375 73.6687 66.1375ZM66.1055 71.776C65.9079 72.1218 65.4633 72.241 65.1177 72.0428C64.7719 71.8439 64.6591 71.4021 64.8565 71.0556L72.5187 57.7852C72.7164 57.4396 73.1537 57.3202 73.4995 57.5192C73.845 57.7181 73.9651 58.1598 73.7674 58.5056L66.1054 71.776H66.1055ZM79.3413 54.8855C81.9094 57.4522 83.4968 60.9975 83.4968 64.9147C83.4968 68.8319 81.9094 72.3766 79.3413 74.9433C76.7732 77.5094 73.2313 79.0968 69.3086 79.0968C65.3859 79.0968 61.851 77.5094 59.2828 74.9433C56.7147 72.3766 55.1272 68.8311 55.1272 64.9147C55.1272 60.9983 56.7147 57.4524 59.2828 54.8855C61.851 52.3193 65.3927 50.732 69.3086 50.732C73.2245 50.732 76.7732 52.3193 79.3413 54.8855ZM43.4922 32.7231H23.3922C23.2906 32.7231 23.1974 32.765 23.129 32.8334C23.0613 32.901 23.019 32.9942 23.019 33.0966V42.7484C23.019 42.8505 23.0613 42.9437 23.129 43.0116C23.1974 43.0799 23.2906 43.1222 23.3922 43.1222H43.4923V32.7233L43.4922 32.7231ZM48.7393 32.7231H44.9442V43.122H48.7393V32.7231ZM70.2891 32.7231H50.1885V43.122H70.2891C70.3948 43.122 70.4868 43.0798 70.5573 43.0114C70.6207 42.9436 70.663 42.8504 70.663 42.7482V33.0964C70.663 32.994 70.6207 32.9008 70.5573 32.8332C70.4866 32.7649 70.3948 32.7231 70.2891 32.7231ZM43.4922 44.5734H24.6854V66.5551C24.6854 66.9933 24.8654 67.3918 25.1546 67.6818C25.4439 67.9711 25.8431 68.151 26.2813 68.151H43.4922V44.5734ZM48.7393 44.5734H44.9442V68.151H48.7393V44.5734ZM68.998 44.5734V49.2843C64.8071 49.3669 61.0184 51.0997 58.2598 53.8598C55.4306 56.689 53.6808 60.5977 53.6808 64.9147C53.6808 66.0239 53.7938 67.1068 54.0123 68.1511H50.1885V44.5736H68.998V44.5734ZM45.0958 31.2711C42.2089 25.0026 38.1167 22.5599 34.6039 22.2557C32.4639 22.071 30.5521 22.6755 29.289 23.6809C28.1221 24.6108 27.5323 25.8836 27.9111 27.1429C28.3605 28.6367 30.1089 30.1696 33.7325 31.271L45.0958 31.2711ZM59.953 31.2711C63.5726 30.1698 65.3222 28.6368 65.7737 27.1431C66.1476 25.8837 65.562 24.6109 64.3909 23.681C63.128 22.6756 61.216 22.071 59.0783 22.2559C55.5647 22.56 51.4725 25.0026 48.5876 31.2712L59.953 31.2711Z" fill="white"/>
</g>
<defs>
<linearGradient id="paint0_linear_110_1535" x1="51.1138" y1="0.180665" x2="91.8102" y2="93.0927" gradientUnits="userSpaceOnUse">
<stop stop-color="#7F60FF"/>
<stop offset="1" stop-color="#3E2D86"/>
</linearGradient>
<clipPath id="clip0_110_1535">
<rect width="100.958" height="100.958" fill="white" transform="translate(0.634766 0.180664)"/>
</clipPath>
</defs>
</svg>
