<svg width="455" height="305" viewBox="0 0 455 305" fill="none" xmlns="http://www.w3.org/2000/svg">
<path d="M405.83 22.5H45.8301V292.5H405.83V22.5Z" fill="white"/>
<g filter="url(#filter0_d_4067_35)">
<mask id="mask0_4067_35" style="mask-type:luminance" maskUnits="userSpaceOnUse" x="380" y="12" width="36" height="41">
<path d="M415.83 12.5H380.83V52.5H415.83V12.5Z" fill="white"/>
<path d="M405.83 26.6955C405.83 24.3784 403.951 22.5 401.634 22.5H380.83V52.5H405.83V26.6955Z" fill="black"/>
</mask>
<g mask="url(#mask0_4067_35)">
<path d="M415.83 26.6955C415.83 18.8555 409.474 12.5 401.634 12.5H380.83V32.5H395.83L415.83 26.6955ZM415.83 52.5V26.6955C415.83 18.8555 409.474 12.5 401.634 12.5L395.83 32.5V52.5H415.83Z" fill="#2563EB"/>
</g>
</g>
<g filter="url(#filter1_d_4067_35)">
<mask id="mask1_4067_35" style="mask-type:luminance" maskUnits="userSpaceOnUse" x="380" y="257" width="36" height="41">
<path d="M415.83 257.5H380.83V297.5H415.83V257.5Z" fill="white"/>
<path d="M405.83 283.305C405.83 285.622 403.951 287.5 401.634 287.5H380.83V257.5H405.83V283.305Z" fill="black"/>
</mask>
<g mask="url(#mask1_4067_35)">
<path d="M415.83 283.305C415.83 291.145 409.474 297.5 401.634 297.5H380.83V277.5H395.83L415.83 283.305ZM415.83 257.5V283.305C415.83 291.145 409.474 297.5 401.634 297.5L395.83 277.5V257.5H415.83Z" fill="#2563EB"/>
</g>
</g>
<g filter="url(#filter2_d_4067_35)">
<mask id="mask2_4067_35" style="mask-type:luminance" maskUnits="userSpaceOnUse" x="40" y="12" width="36" height="41">
<path d="M75.8301 12.5H40.8301V52.5H75.8301V12.5Z" fill="white"/>
<path d="M50.83 26.6955C50.83 24.3784 52.7085 22.5 55.0255 22.5H75.83V52.5H50.83V26.6955Z" fill="black"/>
</mask>
<g mask="url(#mask2_4067_35)">
<path d="M40.8301 26.6955C40.8301 18.8555 47.1856 12.5 55.0255 12.5H75.83V32.5H60.83L40.8301 26.6955ZM40.8301 52.5V26.6955C40.8301 18.8555 47.1856 12.5 55.0255 12.5L60.83 32.5V52.5H40.8301Z" fill="#2563EB"/>
</g>
</g>
<g filter="url(#filter3_d_4067_35)">
<mask id="mask3_4067_35" style="mask-type:luminance" maskUnits="userSpaceOnUse" x="40" y="257" width="36" height="41">
<path d="M75.8301 257.5H40.8301V297.5H75.8301V257.5Z" fill="white"/>
<path d="M50.83 283.305C50.83 285.622 52.7085 287.5 55.0255 287.5H75.83V257.5H50.83V283.305Z" fill="black"/>
</mask>
<g mask="url(#mask3_4067_35)">
<path d="M40.8301 283.305C40.8301 291.145 47.1856 297.5 55.0255 297.5H75.83V277.5H60.83L40.8301 283.305ZM40.8301 257.5V283.305C40.8301 291.145 47.1856 297.5 55.0255 297.5L60.83 277.5V257.5H40.8301Z" fill="#2563EB"/>
</g>
</g>
<mask id="mask4_4067_35" style="mask-type:luminance" maskUnits="userSpaceOnUse" x="105" y="38" width="91" height="90">
<path d="M178.322 38.3716H122.887C113.467 38.3716 105.83 46.0083 105.83 55.4286V110.864C105.83 120.284 113.467 127.921 122.887 127.921H178.322C187.743 127.921 195.38 120.284 195.38 110.864V55.4286C195.38 46.0083 187.743 38.3716 178.322 38.3716Z" fill="white"/>
</mask>
<g mask="url(#mask4_4067_35)">
<path d="M178.322 38.3716H122.887C113.467 38.3716 105.83 46.0083 105.83 55.4286V110.864C105.83 120.284 113.467 127.921 122.887 127.921H178.322C187.743 127.921 195.38 120.284 195.38 110.864V55.4286C195.38 46.0083 187.743 38.3716 178.322 38.3716Z" fill="#2563EB"/>
<mask id="mask5_4067_35" style="mask-type:luminance" maskUnits="userSpaceOnUse" x="110" y="51" width="77" height="77">
<path d="M186.855 51.1644H110.098V127.921H186.855V51.1644Z" fill="white"/>
</mask>
<g mask="url(#mask5_4067_35)">
<path d="M154.692 80.1633H142.481C142.481 80.1633 140.262 94.2228 137.003 94.2228H136.561C130.526 94.2228 125.635 98.7828 125.635 104.409H171.538C171.538 98.7828 166.647 94.2228 160.613 94.2228H160.17C156.911 94.2228 154.692 80.1633 154.692 80.1633Z" fill="#FECACA"/>
<path d="M185.867 123.742C185.075 120.385 182.387 102.499 179.57 100.875C177.703 99.7994 170.844 96.8629 168.835 96.0204C166.826 95.1754 164.749 94.4504 162.623 93.8549C161.695 93.5904 160.677 93.9059 160.136 94.6209C157.677 97.8679 153.482 100 148.73 100C148.646 100 148.561 100 148.476 99.9949C148.392 100 148.307 100 148.222 100C143.471 100 139.278 97.8654 136.816 94.6209C136.276 93.9059 135.258 93.5904 134.33 93.8549C132.203 94.4504 130.126 95.1754 128.118 96.0204C126.109 96.8654 119.25 99.7994 117.383 100.875C114.566 102.501 111.877 120.385 111.086 123.742L110.098 127.92H186.855L185.867 123.742Z" fill="#7E7E7E"/>
<g opacity="0.1">
<path d="M127.162 109.943L126.76 121.221L126.52 127.919H124.981L125.712 121.155L126.927 109.928C126.954 109.686 127.17 109.699 127.162 109.943Z" fill="black"/>
<path d="M172.194 127.92H170.655L170.396 121.223L169.962 109.947C169.951 109.705 170.169 109.69 170.199 109.932L171.444 121.156L172.194 127.92Z" fill="black"/>
</g>
<path d="M164.33 67.0689C164.289 66.3614 164.246 65.6514 164.098 64.9569C164.022 64.5929 163.883 64.1934 163.555 64.0179C163.17 63.8114 162.704 64.0254 162.414 64.3309C162.125 64.6359 161.934 65.0329 161.623 65.3204C161.486 65.4479 161.303 65.5544 161.118 65.5139C161.115 65.5139 161.112 65.5114 161.107 65.5089C161.235 64.8144 161.306 64.0989 161.306 63.3664C161.306 56.6229 155.61 51.1594 148.584 51.1594C141.559 51.1594 135.862 56.6254 135.862 63.3664C135.862 64.0354 135.92 64.6894 136.029 65.3284C135.98 65.4249 135.914 65.4909 135.827 65.5114C135.641 65.5544 135.458 65.4454 135.322 65.3179C135.011 65.0304 134.82 64.6334 134.53 64.3279C134.241 64.0204 133.774 63.8089 133.39 64.0149C133.062 64.1909 132.923 64.5904 132.846 64.9539C132.699 65.6514 132.655 66.3614 132.614 67.0664C132.557 68.0764 132.503 69.1094 132.789 70.0689C133.068 71.0029 133.652 71.8044 134.178 72.6239C134.58 73.2469 135.038 73.9239 135.175 74.6719C135.18 74.6974 135.183 74.7254 135.188 74.7509C135.3 75.5044 138.747 86.1409 140.653 87.4284C141.512 88.0084 142.438 88.6269 143.393 89.0544C144.823 89.6934 147.334 90.6984 148.47 89.1614C149.605 90.6959 152.116 89.6934 153.546 89.0544C154.502 88.6269 155.427 88.0084 156.287 87.4284C158.192 86.1409 161.642 75.5044 161.754 74.7509C161.756 74.7254 161.762 74.6974 161.767 74.6719C161.901 73.9239 162.362 73.2469 162.764 72.6239C163.29 71.8044 163.874 71.0029 164.153 70.0689C164.439 69.1094 164.387 68.0789 164.33 67.0689Z" fill="#FECACA"/>
<path d="M156.325 81.1573C155.208 80.2948 154.054 79.4118 152.648 78.9228C151.319 78.4673 149.687 78.4293 148.508 79.1063V79.0933C147.329 78.4168 145.694 78.4548 144.362 78.9078C142.953 79.3963 141.799 80.2793 140.685 81.1418C137.59 79.2868 135.447 76.3553 134.882 73.2103C134.336 74.9763 134.38 76.8643 135.002 78.6153C135.243 79.2718 135.559 79.9283 135.567 80.6153C135.581 81.2973 135.289 81.9538 135.218 82.6383C135.133 83.4523 135.379 84.2643 135.619 85.0558C135.963 86.1878 136.326 87.3533 137.183 88.2693C137.565 88.6868 138.046 89.0458 138.384 89.4833C138.805 90.0353 138.982 90.6918 139.337 91.2723C139.784 91.9873 140.486 92.5623 141.198 93.1043C141.755 93.5368 142.334 93.9568 142.918 94.3613C144.053 95.1478 145.374 95.7913 146.772 96.1833C147.708 96.4453 149.387 96.4583 150.244 96.1988C151.627 95.7788 152.962 95.1628 154.098 94.3768C154.682 93.9693 155.258 93.5523 155.817 93.1198C156.529 92.5778 157.231 92.0023 157.679 91.2873C158.036 90.7073 158.211 90.0508 158.631 89.4983C158.97 89.0583 159.45 88.7023 159.832 88.2848C160.689 87.3688 161.052 86.2033 161.396 85.0708C161.636 84.2793 161.882 83.4653 161.797 82.6533C161.726 81.9713 161.434 81.3148 161.448 80.6303C161.453 79.9408 161.773 79.2868 162.013 78.6303C162.635 76.8798 162.673 74.9913 162.13 73.2253C161.565 76.3708 159.425 79.3023 156.33 81.1573H156.325ZM150.325 82.9028C149.859 82.8798 149.392 82.8698 148.917 82.8748C148.783 82.8748 148.641 82.8748 148.505 82.8798V82.8648C148.368 82.8598 148.227 82.8598 148.09 82.8598C147.618 82.8543 147.148 82.8648 146.682 82.8873C146.455 82.8978 145.554 83.0708 145.494 82.8163C145.437 82.6053 145.947 82.1978 146.111 82.0633C146.398 81.8368 146.728 81.6458 147.083 81.5108C147.522 81.3478 148.014 81.2563 148.499 81.2513V81.2668C148.985 81.2718 149.479 81.3633 149.919 81.5263C150.276 81.6608 150.607 81.8518 150.89 82.0783C151.051 82.2133 151.565 82.6203 151.507 82.8318C151.45 83.0858 150.547 82.9128 150.32 82.9028H150.325Z" fill="#36353D"/>
</g>
</g>
<mask id="mask6_4067_35" style="mask-type:luminance" maskUnits="userSpaceOnUse" x="168" y="141" width="138" height="138">
<path d="M279.767 141.023H194.551C180.069 141.023 168.33 152.762 168.33 167.243V252.46C168.33 266.941 180.069 278.68 194.551 278.68H279.767C294.248 278.68 305.988 266.941 305.988 252.46V167.243C305.988 152.762 294.248 141.023 279.767 141.023Z" fill="white"/>
</mask>
<g mask="url(#mask6_4067_35)">
<path d="M279.767 141.023H194.551C180.069 141.023 168.33 152.762 168.33 167.243V252.46C168.33 266.941 180.069 278.68 194.551 278.68H279.767C294.248 278.68 305.988 266.941 305.988 252.46V167.243C305.988 152.762 294.248 141.023 279.767 141.023Z" fill="#2563EB"/>
<mask id="mask7_4067_35" style="mask-type:luminance" maskUnits="userSpaceOnUse" x="181" y="154" width="112" height="132">
<path d="M292.873 154.133H181.436V285.236H292.873V154.133Z" fill="white"/>
</mask>
<g mask="url(#mask7_4067_35)">
<path d="M246.181 212.341H228.452C228.452 212.341 225.23 233.8 220.499 233.8H219.857C211.095 233.8 203.994 240.76 203.994 249.347H229.066H270.638C270.638 240.76 263.537 233.8 254.775 233.8H254.134C249.402 233.8 246.181 212.341 246.181 212.341Z" fill="#FECACA"/>
<path d="M291.438 278.856C290.289 273.734 286.386 246.433 282.297 243.955C279.586 242.312 269.628 237.83 266.712 236.545C263.795 235.255 260.78 234.148 257.693 233.24C256.345 232.836 254.867 233.317 254.083 234.409C250.508 239.365 244.422 242.619 237.523 242.619C237.4 242.619 237.277 242.619 237.154 242.611C237.031 242.619 236.909 242.619 236.786 242.619C229.887 242.619 223.8 239.361 220.226 234.409C219.441 233.317 217.963 232.836 216.616 233.24C213.529 234.148 210.514 235.255 207.597 236.545C204.681 237.834 194.722 242.312 192.012 243.955C187.923 246.437 184.019 273.734 182.87 278.856L181.436 285.234H292.873L291.438 278.856Z" fill="#585B7A"/>
<g opacity="0.1">
<path d="M206.213 257.802L205.631 275.016L205.282 285.238H203.047L204.109 274.915L205.872 257.779C205.912 257.41 206.225 257.429 206.213 257.802Z" fill="black"/>
<path d="M271.592 285.238H269.357L268.98 275.016L268.35 257.806C268.335 257.437 268.652 257.413 268.695 257.782L270.502 274.914L271.592 285.238Z" fill="black"/>
</g>
<path d="M258.312 191.977C258.256 191.03 258.201 190.082 258.002 189.15C257.899 188.664 257.717 188.125 257.277 187.891C256.762 187.616 256.14 187.899 255.756 188.311C255.371 188.723 255.114 189.251 254.702 189.639C254.519 189.81 254.278 189.954 254.028 189.899C253.493 189.779 254.979 188.307 254.923 187.907C254.809 187.076 255.157 186.245 255.003 185.417C254.698 183.771 252.379 182.135 251.745 180.578C250.569 177.684 248.536 175.001 245.801 173.801C243.067 172.604 239.588 173.253 237.888 175.781C237.579 176.244 237.337 176.741 237.151 177.265C236.965 176.745 236.723 176.244 236.414 175.781C234.714 173.253 231.235 172.604 228.501 173.801C225.766 174.997 223.73 177.681 222.557 180.578C221.923 182.135 219.605 183.771 219.299 185.417C219.145 186.245 219.494 187.076 219.379 187.907C219.323 188.307 220.805 189.775 220.274 189.899C220.025 189.958 219.783 189.81 219.601 189.639C219.185 189.255 218.931 188.723 218.547 188.311C218.162 187.899 217.536 187.616 217.025 187.891C216.589 188.125 216.403 188.664 216.3 189.15C216.102 190.082 216.046 191.034 215.991 191.977C215.911 193.329 215.84 194.716 216.224 195.997C216.597 197.248 217.374 198.32 218.079 199.419C218.614 200.254 219.161 201.171 219.339 202.173C219.347 202.208 219.351 202.243 219.355 202.278C219.505 203.287 219.609 211.183 220.433 212.702C221.883 215.363 224.169 217.518 226.717 219.243C227.867 220.019 229.099 220.851 230.375 221.422C232.285 222.276 235.637 223.62 237.151 221.565C238.665 223.62 242.017 222.276 243.927 221.422C245.203 220.851 246.439 220.023 247.585 219.243C250.129 217.518 252.419 215.363 253.869 212.702C254.698 211.183 254.733 203.28 254.88 202.266C254.884 202.231 254.896 202.196 254.896 202.161C254.999 201.159 255.688 200.254 256.223 199.415C256.925 198.32 257.705 197.248 258.078 195.993C258.458 194.708 258.387 193.329 258.312 191.977Z" fill="#FECACA"/>
<path d="M247.324 214.202C245.866 212.885 244.356 211.538 242.517 210.792C240.782 210.097 238.646 210.039 237.104 211.072V211.052C235.563 210.019 233.423 210.078 231.687 210.769C229.849 211.515 228.339 212.862 226.881 214.179C222.835 211.347 220.033 206.873 219.296 202.073C218.583 204.768 218.638 207.65 219.455 210.322C219.768 211.324 220.184 212.326 220.192 213.375C220.208 214.416 219.827 215.418 219.732 216.463C219.621 217.705 219.942 218.944 220.259 220.152C220.707 221.881 221.182 223.659 222.304 225.058C222.803 225.695 223.433 226.242 223.873 226.91C224.424 227.753 224.654 228.755 225.117 229.641C225.704 230.732 226.619 231.61 227.55 232.437C228.28 233.101 229.032 233.738 229.797 234.356C231.279 235.556 233.007 236.539 234.834 237.137C236.058 237.537 238.249 237.556 239.375 237.16C241.186 236.519 242.929 235.579 244.411 234.379C245.176 233.758 245.929 233.121 246.658 232.46C247.589 231.633 248.505 230.755 249.091 229.664C249.559 228.778 249.785 227.776 250.335 226.934C250.775 226.262 251.405 225.718 251.905 225.081C253.022 223.683 253.498 221.904 253.949 220.176C254.262 218.968 254.583 217.725 254.476 216.486C254.381 215.445 254.001 214.443 254.017 213.398C254.025 212.346 254.441 211.347 254.754 210.345C255.566 207.673 255.618 204.792 254.908 202.096C254.171 206.897 251.37 211.371 247.324 214.202ZM239.482 216.866C238.872 216.831 238.261 216.816 237.643 216.824C237.465 216.824 237.283 216.824 237.104 216.831V216.808C236.926 216.8 236.74 216.8 236.561 216.8C235.943 216.793 235.333 216.808 234.723 216.843C234.426 216.859 233.249 217.123 233.169 216.735C233.094 216.413 233.764 215.791 233.974 215.585C234.346 215.239 234.778 214.948 235.246 214.742C235.82 214.493 236.462 214.354 237.096 214.346V214.37C237.73 214.377 238.376 214.517 238.955 214.765C239.422 214.971 239.854 215.262 240.227 215.608C240.437 215.814 241.11 216.435 241.031 216.758C240.956 217.146 239.779 216.882 239.482 216.866Z" fill="#7C3B25"/>
<path d="M258.36 181.225C258.027 176.502 254.908 172.475 251.924 168.758C250.965 167.558 249.971 166.338 248.639 165.554C246.975 164.579 244.97 164.4 243.032 164.241C241.11 164.078 239.176 163.93 237.239 163.899V163.88C235.301 163.911 233.363 164.058 231.441 164.221C229.504 164.377 227.499 164.555 225.834 165.534C224.503 166.315 223.508 167.538 222.549 168.738C219.561 172.455 216.447 176.483 216.114 181.206C215.825 185.311 217.695 189.234 219.526 192.943C220.188 194.275 220.726 195.557 221.222 196.951C221.892 193.65 222.553 190.322 222.454 186.954C222.387 184.787 222.042 182.449 223.152 180.569C224.329 178.596 226.892 177.722 229.21 177.924C231.537 178.126 233.68 179.206 235.693 180.359C236.177 180.635 236.692 180.922 237.239 180.903V180.922C237.786 180.946 238.301 180.654 238.788 180.379C240.801 179.225 242.945 178.145 245.271 177.943C247.589 177.741 250.149 178.615 251.33 180.588C252.439 182.464 252.099 184.802 252.027 186.974C251.928 190.341 252.59 193.669 253.26 196.971C253.755 195.576 254.294 194.299 254.956 192.963C256.786 189.253 258.657 185.327 258.368 181.225H258.36Z" fill="#7C3B25"/>
<path d="M232.053 156.65C230.726 157.353 229.818 158.619 229.624 160.208C229.537 160.934 229.62 161.68 229.838 162.379C230.088 163.168 230.547 163.944 231.296 164.321C231.93 164.64 232.675 164.632 233.389 164.62C235.972 164.57 238.556 164.515 241.14 164.465C241.492 164.457 241.853 164.449 242.178 164.317C242.855 164.045 243.216 163.331 243.513 162.678C244.104 161.381 244.71 160.025 244.654 158.608C244.579 156.611 243.038 154.751 241.06 154.269C240.07 154.029 239.004 154.141 238.069 154.534C237.621 154.72 237.221 155 236.868 155.322C236.476 155.679 236.321 156.293 235.719 156.27C235.065 156.246 234.486 156.009 233.777 156.107C233.151 156.192 232.568 156.382 232.049 156.654L232.053 156.65Z" fill="#7C3B25"/>
</g>
</g>
<path d="M357.059 56.25H265.83C254.094 56.25 244.58 65.7639 244.58 77.5V95.552C244.58 107.288 254.094 116.802 265.83 116.802H357.059C368.795 116.802 378.309 107.288 378.309 95.552V77.5C378.309 65.7639 368.795 56.25 357.059 56.25Z" fill="white"/>
<path d="M357.059 56.25H265.83C254.094 56.25 244.58 65.7639 244.58 77.5V95.552C244.58 107.288 254.094 116.802 265.83 116.802H357.059C368.795 116.802 378.309 107.288 378.309 95.552V77.5C378.309 65.7639 368.795 56.25 357.059 56.25Z" stroke="#E5E7EB" stroke-width="0.5"/>
<path d="M274.856 105.552C285.364 105.552 293.882 97.0338 293.882 86.526C293.882 76.0182 285.364 67.5 274.856 67.5C264.348 67.5 255.83 76.0182 255.83 86.526C255.83 97.0338 264.348 105.552 274.856 105.552Z" fill="#EF4444"/>
<path d="M367.059 82.9696H361.986C361.894 82.3136 361.705 81.7306 361.419 81.2211C361.133 80.7036 360.766 80.2636 360.318 79.9006C359.87 79.5376 359.353 79.2596 358.766 79.0666C358.187 78.8736 357.558 78.7771 356.879 78.7771C355.651 78.7771 354.581 79.0821 353.67 79.6921C352.759 80.2941 352.052 81.1746 351.55 82.3326C351.048 83.4831 350.798 84.8811 350.798 86.5256C350.798 88.2166 351.048 89.6376 351.55 90.7881C352.06 91.9386 352.77 92.8071 353.681 93.3941C354.592 93.9806 355.646 94.2741 356.843 94.2741C357.515 94.2741 358.137 94.1856 358.709 94.0076C359.288 93.8301 359.801 93.5716 360.249 93.2316C360.696 92.8841 361.068 92.4636 361.361 91.9691C361.662 91.4751 361.871 90.9116 361.986 90.2781L367.059 90.3016C366.928 91.3901 366.6 92.4401 366.074 93.4521C365.557 94.4556 364.859 95.3551 363.979 96.1506C363.106 96.9381 362.063 97.5636 360.851 98.0271C359.646 98.4826 358.284 98.7101 356.763 98.7101C354.647 98.7101 352.755 98.2316 351.087 97.2741C349.427 96.3166 348.115 94.9306 347.149 93.1161C346.192 91.3016 345.713 89.1046 345.713 86.5256C345.713 83.9391 346.2 81.7381 347.173 79.9236C348.145 78.1091 349.466 76.7271 351.134 75.7771C352.802 74.8196 354.678 74.3411 356.763 74.3411C358.137 74.3411 359.411 74.5341 360.584 74.9201C361.766 75.3061 362.812 75.8696 363.723 76.6111C364.634 77.3446 365.376 78.2441 365.948 79.3096C366.527 80.3751 366.897 81.5956 367.059 82.9696Z" fill="#030712"/>
<path d="M326.162 98.3865V74.6655H342.146V78.8005H331.177V84.4525H341.324V88.5875H331.177V94.2515H342.192V98.3865H326.162Z" fill="#030712"/>
<path d="M304.756 98.3865V74.6655H314.114C315.906 74.6655 317.434 74.986 318.701 75.627C319.975 76.26 320.944 77.1595 321.608 78.3255C322.28 79.484 322.616 80.8465 322.616 82.414C322.616 83.9895 322.276 85.3445 321.596 86.4795C320.917 87.607 319.932 88.4715 318.643 89.074C317.361 89.6765 315.809 89.9775 313.987 89.9775H307.721V85.947H313.176C314.133 85.947 314.929 85.8155 315.562 85.553C316.195 85.2905 316.666 84.8965 316.975 84.3715C317.292 83.8465 317.45 83.194 317.45 82.414C317.45 81.6265 317.292 80.9625 316.975 80.422C316.666 79.8815 316.191 79.472 315.55 79.194C314.917 78.9085 314.118 78.7655 313.153 78.7655H309.771V98.3865H304.756ZM317.566 87.5915L323.461 98.3865H317.925L312.157 87.5915H317.566Z" fill="#030712"/>
<defs>
<filter id="filter0_d_4067_35" x="379.432" y="11.1015" width="37.797" height="42.797" filterUnits="userSpaceOnUse" color-interpolation-filters="sRGB">
<feFlood flood-opacity="0" result="BackgroundImageFix"/>
<feColorMatrix in="SourceAlpha" type="matrix" values="0 0 0 0 0 0 0 0 0 0 0 0 0 0 0 0 0 0 127 0" result="hardAlpha"/>
<feOffset/>
<feGaussianBlur stdDeviation="0.699249"/>
<feComposite in2="hardAlpha" operator="out"/>
<feColorMatrix type="matrix" values="0 0 0 0 0 0 0 0 0 0 0 0 0 0 0 0 0 0 0.1 0"/>
<feBlend mode="normal" in2="BackgroundImageFix" result="effect1_dropShadow_4067_35"/>
<feBlend mode="normal" in="SourceGraphic" in2="effect1_dropShadow_4067_35" result="shape"/>
</filter>
<filter id="filter1_d_4067_35" x="379.432" y="256.102" width="37.797" height="42.797" filterUnits="userSpaceOnUse" color-interpolation-filters="sRGB">
<feFlood flood-opacity="0" result="BackgroundImageFix"/>
<feColorMatrix in="SourceAlpha" type="matrix" values="0 0 0 0 0 0 0 0 0 0 0 0 0 0 0 0 0 0 127 0" result="hardAlpha"/>
<feOffset/>
<feGaussianBlur stdDeviation="0.699249"/>
<feComposite in2="hardAlpha" operator="out"/>
<feColorMatrix type="matrix" values="0 0 0 0 0 0 0 0 0 0 0 0 0 0 0 0 0 0 0.1 0"/>
<feBlend mode="normal" in2="BackgroundImageFix" result="effect1_dropShadow_4067_35"/>
<feBlend mode="normal" in="SourceGraphic" in2="effect1_dropShadow_4067_35" result="shape"/>
</filter>
<filter id="filter2_d_4067_35" x="39.4316" y="11.1015" width="37.7969" height="42.797" filterUnits="userSpaceOnUse" color-interpolation-filters="sRGB">
<feFlood flood-opacity="0" result="BackgroundImageFix"/>
<feColorMatrix in="SourceAlpha" type="matrix" values="0 0 0 0 0 0 0 0 0 0 0 0 0 0 0 0 0 0 127 0" result="hardAlpha"/>
<feOffset/>
<feGaussianBlur stdDeviation="0.699249"/>
<feComposite in2="hardAlpha" operator="out"/>
<feColorMatrix type="matrix" values="0 0 0 0 0 0 0 0 0 0 0 0 0 0 0 0 0 0 0.1 0"/>
<feBlend mode="normal" in2="BackgroundImageFix" result="effect1_dropShadow_4067_35"/>
<feBlend mode="normal" in="SourceGraphic" in2="effect1_dropShadow_4067_35" result="shape"/>
</filter>
<filter id="filter3_d_4067_35" x="39.4316" y="256.102" width="37.7969" height="42.797" filterUnits="userSpaceOnUse" color-interpolation-filters="sRGB">
<feFlood flood-opacity="0" result="BackgroundImageFix"/>
<feColorMatrix in="SourceAlpha" type="matrix" values="0 0 0 0 0 0 0 0 0 0 0 0 0 0 0 0 0 0 127 0" result="hardAlpha"/>
<feOffset/>
<feGaussianBlur stdDeviation="0.699249"/>
<feComposite in2="hardAlpha" operator="out"/>
<feColorMatrix type="matrix" values="0 0 0 0 0 0 0 0 0 0 0 0 0 0 0 0 0 0 0.1 0"/>
<feBlend mode="normal" in2="BackgroundImageFix" result="effect1_dropShadow_4067_35"/>
<feBlend mode="normal" in="SourceGraphic" in2="effect1_dropShadow_4067_35" result="shape"/>
</filter>
</defs>
</svg>
