<svg width="465" height="500" viewBox="0 0 465 500" fill="none" xmlns="http://www.w3.org/2000/svg">
<g filter="url(#filter0_d_400_155)">
<rect x="60" y="50" width="343" height="380" rx="13" fill="white"/>
<g clip-path="url(#clip0_400_155)">
<path d="M80.8145 87.2441C83.7051 87.2441 85.3848 85.5645 85.3848 82.7031V72.9082H82.875V82.6836C82.875 84.2168 82.1523 85.0371 80.7852 85.0371C79.5449 85.0371 78.8809 84.2266 78.8125 83.1426L78.8027 83.0645H76.3418L76.3516 83.1719C76.4492 85.5938 78.0703 87.2441 80.8145 87.2441ZM91.6046 87.2051C93.1671 87.2051 94.2316 86.4824 94.7687 85.3789H94.8175V87H97.2491V76.6484H94.8175V82.6445C94.8175 84.1484 93.9288 85.1543 92.5323 85.1543C91.1456 85.1543 90.462 84.3242 90.462 82.8594V76.6484H88.0304V83.3379C88.0304 85.7402 89.3292 87.2051 91.6046 87.2051ZM99.6311 87H102.063V80.9941C102.063 79.5 102.951 78.4844 104.348 78.4844C105.735 78.4844 106.418 79.3145 106.418 80.7891V87H108.85V80.3008C108.85 77.8984 107.551 76.4336 105.276 76.4336C103.703 76.4336 102.649 77.1562 102.112 78.2695H102.063V76.6484H99.6311V87ZM115.734 87.2051C118.439 87.2051 119.962 85.6035 120.285 84.0117L120.314 83.9043H118.038L118.019 83.9727C117.785 84.666 116.994 85.3105 115.783 85.3105C114.201 85.3105 113.204 84.2363 113.165 82.4199H120.411V81.6387C120.411 78.5137 118.576 76.4336 115.617 76.4336C112.658 76.4336 110.753 78.582 110.753 81.8438V81.8535C110.753 85.1445 112.628 87.2051 115.734 87.2051ZM115.646 78.3379C116.935 78.3379 117.872 79.1582 118.048 80.7988H113.195C113.39 79.207 114.357 78.3379 115.646 78.3379ZM126.796 87H136.699V84.9395H130.127V84.832L133.232 81.8828C135.713 79.5 136.484 78.377 136.484 76.7168V76.6973C136.484 74.373 134.511 72.6641 131.689 72.6641C128.828 72.6641 126.66 74.5098 126.66 77.0879V77.1562H129.023V77.0879C129.052 75.7305 130.146 74.6855 131.709 74.6855C133.066 74.6855 134.013 75.584 134.023 76.8438V76.8633C134.023 77.9082 133.623 78.6211 131.777 80.4277L126.796 85.2812V87ZM144.266 87.2441C147.714 87.2441 149.803 84.4414 149.803 79.959V79.9395C149.803 75.457 147.714 72.6641 144.266 72.6641C140.809 72.6641 138.729 75.457 138.729 79.9395V79.959C138.729 84.4414 140.809 87.2441 144.266 87.2441ZM144.266 85.1836C142.362 85.1836 141.268 83.2109 141.268 79.959V79.9395C141.268 76.6875 142.362 74.7344 144.266 74.7344C146.161 74.7344 147.264 76.6875 147.264 79.9395V79.959C147.264 83.2109 146.161 85.1836 144.266 85.1836ZM151.931 87H161.834V84.9395H155.262V84.832L158.367 81.8828C160.848 79.5 161.619 78.377 161.619 76.7168V76.6973C161.619 74.373 159.646 72.6641 156.824 72.6641C153.963 72.6641 151.795 74.5098 151.795 77.0879V77.1562H154.158V77.0879C154.187 75.7305 155.281 74.6855 156.844 74.6855C158.201 74.6855 159.148 75.584 159.158 76.8438V76.8633C159.158 77.9082 158.758 78.6211 156.912 80.4277L151.931 85.2812V87ZM167.663 87H170.134V72.9082H167.644L163.962 75.4961V77.8105L167.604 75.3105H167.663V87Z" fill="#30A2FF"/>
<path d="M187.69 80C187.69 79.7271 187.595 79.5049 187.373 79.2954L182.504 74.5347C182.339 74.3633 182.136 74.2808 181.889 74.2808C181.4 74.2808 181 74.6743 181 75.1631C181 75.4043 181.102 75.6265 181.279 75.8042L185.596 79.9937L181.279 84.1958C181.102 84.3672 181 84.5894 181 84.8369C181 85.3257 181.4 85.7192 181.889 85.7192C182.13 85.7192 182.339 85.6367 182.504 85.4653L187.373 80.7046C187.595 80.4951 187.69 80.2666 187.69 80Z" fill="#30A2FF"/>
</g>
<path d="M336 80C336 80.3418 336.127 80.6348 336.4 80.8887L343.998 88.3301C344.213 88.5449 344.486 88.6621 344.809 88.6621C345.453 88.6621 345.971 88.1543 345.971 87.5C345.971 87.1777 345.834 86.8945 345.619 86.6699L338.773 80L345.619 73.3301C345.834 73.1055 345.971 72.8125 345.971 72.5C345.971 71.8457 345.453 71.3379 344.809 71.3379C344.486 71.3379 344.213 71.4551 343.998 71.6699L336.4 79.1016C336.127 79.3652 336 79.6582 336 80Z" fill="#30A2FF"/>
<path d="M387 80C386.99 79.6582 386.863 79.3652 386.6 79.1016L379.002 71.6699C378.777 71.4551 378.514 71.3379 378.191 71.3379C377.537 71.3379 377.029 71.8457 377.029 72.5C377.029 72.8125 377.156 73.1055 377.381 73.3301L384.217 80L377.381 86.6699C377.156 86.8945 377.029 87.1777 377.029 87.5C377.029 88.1543 377.537 88.6621 378.191 88.6621C378.504 88.6621 378.777 88.5449 379.002 88.3301L386.6 80.8887C386.873 80.6348 387 80.3418 387 80Z" fill="#30A2FF"/>
<path d="M82.7709 120.229C84.9672 120.229 86.3446 119.111 86.3446 117.328V117.321C86.3446 115.938 85.5384 115.163 83.6088 114.757L82.6249 114.547C81.4823 114.306 81.0189 113.9 81.0189 113.252V113.246C81.0189 112.465 81.7426 111.989 82.7582 111.989C83.8055 111.983 84.4847 112.491 84.599 113.202L84.6117 113.278H86.1796L86.1732 113.195C86.059 111.723 84.7958 110.612 82.7645 110.612C80.7841 110.612 79.3749 111.716 79.3749 113.354V113.36C79.3749 114.725 80.1874 115.601 82.0599 115.995L83.0438 116.198C84.2245 116.452 84.7006 116.852 84.7006 117.512V117.518C84.7006 118.305 83.9261 118.851 82.8217 118.851C81.66 118.851 80.8412 118.343 80.765 117.575L80.7587 117.512H79.1718L79.1781 117.601C79.2924 119.181 80.6444 120.229 82.7709 120.229ZM91.8652 120.229C94.1948 120.229 95.6294 118.864 95.6294 116.845V110.84H93.9917V116.712C93.9917 117.975 93.23 118.813 91.8716 118.813C90.5068 118.813 89.7388 117.975 89.7388 116.712V110.84H88.1011V116.845C88.1011 118.864 89.5483 120.229 91.8652 120.229ZM97.8048 120H99.3854V113.69H99.4869L103.987 120H105.403V110.84H103.829V117.15H103.727L99.2267 110.84H97.8048V120Z" fill="#3C3C43" fill-opacity="0.3"/>
<path d="M124.13 120H125.609V113.487H125.717L128.256 120H129.373L131.912 113.487H132.026V120H133.499V110.84H131.62L128.872 117.886H128.764L126.009 110.84H124.13V120ZM139.629 120.229C142.301 120.229 143.958 118.369 143.958 115.423V115.411C143.958 112.459 142.295 110.612 139.629 110.612C136.969 110.612 135.294 112.459 135.294 115.411V115.423C135.294 118.369 136.944 120.229 139.629 120.229ZM139.629 118.813C137.979 118.813 136.963 117.48 136.963 115.423V115.411C136.963 113.341 138.004 112.027 139.629 112.027C141.254 112.027 142.289 113.341 142.289 115.411V115.423C142.289 117.48 141.26 118.813 139.629 118.813ZM145.759 120H147.34V113.69H147.441L151.942 120H153.357V110.84H151.783V117.15H151.681L147.181 110.84H145.759V120Z" fill="#3C3C43" fill-opacity="0.3"/>
<path d="M175.891 120H177.529V112.218H180.354V110.84H173.073V112.218H175.891V120ZM185.748 120.229C188.077 120.229 189.512 118.864 189.512 116.845V110.84H187.874V116.712C187.874 117.975 187.112 118.813 185.754 118.813C184.389 118.813 183.621 117.975 183.621 116.712V110.84H181.983V116.845C181.983 118.864 183.431 120.229 185.748 120.229ZM191.687 120H197.616V118.623H193.325V116.001H197.381V114.7H193.325V112.218H197.616V110.84H191.687V120Z" fill="#3C3C43" fill-opacity="0.3"/>
<path d="M219.34 120H220.882L222.736 113.443H222.831L224.697 120H226.233L228.69 110.84H226.995L225.427 117.715H225.338L223.51 110.84H222.057L220.254 117.715H220.159L218.591 110.84H216.883L219.34 120ZM230.3 120H236.229V118.623H231.938V116.001H235.994V114.7H231.938V112.218H236.229V110.84H230.3V120ZM238.182 120H241.616C244.359 120 245.926 118.318 245.926 115.385V115.373C245.926 112.503 244.339 110.84 241.616 110.84H238.182V120ZM239.82 118.623V112.218H241.401C243.197 112.218 244.257 113.386 244.257 115.398V115.411C244.257 117.467 243.222 118.623 241.401 118.623H239.82Z" fill="#3C3C43" fill-opacity="0.3"/>
<path d="M267.876 120H269.514V112.218H272.338V110.84H265.057V112.218H267.876V120ZM273.974 120H275.612V116.026H280.068V120H281.699V110.84H280.068V114.649H275.612V110.84H273.974V120ZM287.645 120.229C289.975 120.229 291.409 118.864 291.409 116.845V110.84H289.772V116.712C289.772 117.975 289.01 118.813 287.651 118.813C286.287 118.813 285.519 117.975 285.519 116.712V110.84H283.881V116.845C283.881 118.864 285.328 120.229 287.645 120.229Z" fill="#3C3C43" fill-opacity="0.3"/>
<path d="M315.514 120H317.151V116.261H320.992V114.928H317.151V112.218H321.353V110.84H315.514V120ZM323.091 120H324.729V116.553H326.544L328.34 120H330.213L328.213 116.306C329.299 115.912 329.94 114.909 329.94 113.697V113.684C329.94 111.938 328.759 110.84 326.792 110.84H323.091V120ZM324.729 115.296V112.167H326.588C327.629 112.167 328.258 112.764 328.258 113.722V113.735C328.258 114.719 327.655 115.296 326.62 115.296H324.729ZM331.849 120H333.486V110.84H331.849V120Z" fill="#3C3C43" fill-opacity="0.3"/>
<path d="M362.75 120.229C364.946 120.229 366.324 119.111 366.324 117.328V117.321C366.324 115.938 365.517 115.163 363.588 114.757L362.604 114.547C361.461 114.306 360.998 113.9 360.998 113.252V113.246C360.998 112.465 361.722 111.989 362.737 111.989C363.785 111.983 364.464 112.491 364.578 113.202L364.591 113.278H366.159L366.152 113.195C366.038 111.723 364.775 110.612 362.744 110.612C360.763 110.612 359.354 111.716 359.354 113.354V113.36C359.354 114.725 360.166 115.601 362.039 115.995L363.023 116.198C364.203 116.452 364.68 116.852 364.68 117.512V117.518C364.68 118.305 363.905 118.851 362.801 118.851C361.639 118.851 360.82 118.343 360.744 117.575L360.738 117.512H359.151L359.157 117.601C359.271 119.181 360.623 120.229 362.75 120.229ZM367.407 120H369.121L369.883 117.632H373.272L374.041 120H375.754L372.504 110.84H370.657L367.407 120ZM371.527 112.542H371.635L372.866 116.369H370.295L371.527 112.542ZM378.514 120H380.151V112.218H382.976V110.84H375.695V112.218H378.514V120Z" fill="#3C3C43" fill-opacity="0.3"/>
<path d="M185.303 167H187.002V152.908H185.283L181.533 155.604V157.371L185.264 154.773H185.303V167Z" fill="#757272"/>
<path d="M226.979 167H236.275V165.438H229.391V165.398L232.74 161.961C235.328 159.314 236.041 158.152 236.041 156.609V156.59C236.041 154.383 234.176 152.674 231.627 152.674C229 152.674 226.891 154.48 226.891 156.922V156.98H228.59V156.932C228.59 155.418 229.898 154.207 231.656 154.207C233.189 154.207 234.273 155.242 234.283 156.678V156.697C234.283 157.869 233.844 158.631 231.939 160.613L226.979 165.789V167Z" fill="#757272"/>
<path d="M277.971 167.234C280.793 167.234 282.863 165.496 282.863 163.143V163.123C282.863 161.121 281.467 159.842 279.416 159.666V159.627C281.174 159.256 282.404 158.064 282.404 156.326V156.307C282.404 154.168 280.637 152.674 277.951 152.674C275.314 152.674 273.498 154.207 273.273 156.502L273.264 156.6H274.953L274.963 156.502C275.109 155.076 276.291 154.197 277.951 154.197C279.67 154.197 280.637 155.047 280.637 156.521V156.541C280.637 157.947 279.465 158.982 277.785 158.982H276.096V160.467H277.863C279.836 160.467 281.076 161.434 281.076 163.162V163.182C281.076 164.676 279.816 165.711 277.971 165.711C276.096 165.711 274.826 164.754 274.68 163.367L274.67 163.27H272.98L272.99 163.387C273.176 165.613 275.061 167.234 277.971 167.234Z" fill="#757272"/>
<path d="M326.297 167H327.996V164.07H329.988V162.527H327.996V152.908H325.398L319.217 162.479V164.07H326.297V167ZM320.955 162.527V162.488L326.238 154.412H326.297V162.527H320.955Z" fill="#757272"/>
<path d="M371.137 167.234C374.066 167.234 376.146 165.262 376.156 162.439V162.42C376.156 159.715 374.203 157.752 371.498 157.752C370.131 157.752 368.959 158.26 368.295 159.207H368.256L368.734 154.471H375.355V152.908H367.289L366.566 160.945H368.119C368.305 160.623 368.529 160.35 368.783 160.115C369.408 159.549 370.229 159.266 371.186 159.266C373.051 159.266 374.389 160.594 374.398 162.449V162.469C374.398 164.363 373.07 165.691 371.156 165.691C369.467 165.691 368.217 164.627 368.041 163.23L368.031 163.152H366.303L366.312 163.26C366.518 165.555 368.441 167.234 371.137 167.234Z" fill="#757272"/>
<path d="M92.0684 215.234C94.9492 215.234 97.0586 213.223 97.0586 210.449V210.43C97.0586 207.754 95.0664 205.771 92.3809 205.771C90.4668 205.771 89.0215 206.787 88.4551 208.037H88.416C88.416 207.93 88.416 207.832 88.4258 207.734C88.5039 204.775 89.5391 202.227 92.166 202.227C93.6113 202.227 94.6172 202.949 95.0371 204.111L95.0762 204.219H96.8633L96.834 204.092C96.3652 202.041 94.5781 200.674 92.1855 200.674C88.7383 200.674 86.7168 203.447 86.7168 208.193V208.213C86.7168 213.438 89.4707 215.234 92.0684 215.234ZM88.8359 210.43V210.42C88.8359 208.623 90.2324 207.314 92.0781 207.314C93.9336 207.314 95.2715 208.633 95.2715 210.469V210.488C95.2715 212.266 93.8457 213.672 92.0488 213.672C90.2422 213.672 88.8359 212.236 88.8359 210.43Z" fill="#757272"/>
<rect x="122.5" y="192" width="32" height="32" rx="16" fill="#30A2FF"/>
<path d="M134.672 215H137.309L143.334 203.008V200.908H133.529V202.969H140.854V203.018L134.672 215Z" fill="white"/>
<path d="M185 215.234C187.988 215.234 190.117 213.555 190.117 211.191V211.172C190.117 209.434 188.896 207.988 187.09 207.568V207.529C188.633 207.051 189.609 205.879 189.609 204.395V204.375C189.609 202.246 187.666 200.674 185 200.674C182.334 200.674 180.391 202.246 180.391 204.375V204.395C180.391 205.879 181.367 207.051 182.91 207.529V207.568C181.104 207.988 179.883 209.434 179.883 211.172V211.191C179.883 213.555 182.012 215.234 185 215.234ZM185 206.875C183.301 206.875 182.139 205.908 182.139 204.541V204.521C182.139 203.154 183.301 202.188 185 202.188C186.699 202.188 187.861 203.154 187.861 204.521V204.541C187.861 205.908 186.699 206.875 185 206.875ZM185 213.701C183.057 213.701 181.67 212.607 181.67 211.084V211.064C181.67 209.521 183.047 208.418 185 208.418C186.953 208.418 188.33 209.521 188.33 211.064V211.084C188.33 212.607 186.943 213.701 185 213.701Z" fill="#757272"/>
<path d="M231.432 200.674C228.551 200.674 226.441 202.686 226.441 205.459V205.479C226.441 208.154 228.434 210.137 231.119 210.137C233.033 210.137 234.479 209.121 235.045 207.871H235.084C235.084 207.979 235.084 208.076 235.074 208.174C234.996 211.133 233.961 213.682 231.334 213.682C229.889 213.682 228.883 212.959 228.463 211.797L228.424 211.689H226.637L226.666 211.816C227.135 213.867 228.922 215.234 231.314 215.234C234.762 215.234 236.783 212.461 236.783 207.715V207.695C236.783 202.471 234.029 200.674 231.432 200.674ZM231.422 208.594C229.566 208.594 228.229 207.275 228.229 205.439V205.42C228.229 203.643 229.654 202.236 231.451 202.236C233.258 202.236 234.664 203.672 234.664 205.479V205.488C234.664 207.285 233.268 208.594 231.422 208.594Z" fill="#757272"/>
<path d="M272.048 215H273.748V200.908H272.029L268.279 203.604V205.371L272.009 202.773H272.048V215ZM282.614 215.234C285.856 215.234 287.799 212.432 287.799 207.959V207.939C287.799 203.467 285.856 200.674 282.614 200.674C279.372 200.674 277.448 203.467 277.448 207.939V207.959C277.448 212.432 279.372 215.234 282.614 215.234ZM282.614 213.701C280.465 213.701 279.215 211.494 279.215 207.959V207.939C279.215 204.404 280.465 202.217 282.614 202.217C284.762 202.217 286.032 204.404 286.032 207.939V207.959C286.032 211.494 284.762 213.701 282.614 213.701Z" fill="#757272"/>
<path d="M320.179 215H321.878V200.908H320.16L316.41 203.604V205.371L320.14 202.773H320.179V215ZM329.426 215H331.126V200.908H329.407L325.657 203.604V205.371L329.387 202.773H329.426V215Z" fill="#757272"/>
<path d="M365.449 215H367.148V200.908H365.429L361.679 203.604V205.371L365.41 202.773H365.449V215ZM371.102 215H380.399V213.438H373.514V213.398L376.864 209.961C379.452 207.314 380.165 206.152 380.165 204.609V204.59C380.165 202.383 378.299 200.674 375.751 200.674C373.124 200.674 371.014 202.48 371.014 204.922V204.98H372.713V204.932C372.713 203.418 374.022 202.207 375.78 202.207C377.313 202.207 378.397 203.242 378.407 204.678V204.697C378.407 205.869 377.967 206.631 376.063 208.613L371.102 213.789V215Z" fill="#757272"/>
<path d="M86.1948 263H87.894V248.908H86.1752L82.4252 251.604V253.371L86.1557 250.773H86.1948V263ZM96.5943 263.234C99.4166 263.234 101.487 261.496 101.487 259.143V259.123C101.487 257.121 100.09 255.842 98.0396 255.666V255.627C99.7974 255.256 101.028 254.064 101.028 252.326V252.307C101.028 250.168 99.2603 248.674 96.5748 248.674C93.938 248.674 92.1216 250.207 91.897 252.502L91.8873 252.6H93.5767L93.5865 252.502C93.733 251.076 94.9146 250.197 96.5748 250.197C98.2935 250.197 99.2603 251.047 99.2603 252.521V252.541C99.2603 253.947 98.0884 254.982 96.4088 254.982H94.7193V256.467H96.4869C98.4595 256.467 99.6998 257.434 99.6998 259.162V259.182C99.6998 260.676 98.44 261.711 96.5943 261.711C94.7193 261.711 93.4498 260.754 93.3033 259.367L93.2935 259.27H91.6041L91.6138 259.387C91.7994 261.613 93.6841 263.234 96.5943 263.234Z" fill="#757272"/>
<path d="M132.568 263H134.267V248.908H132.548L128.798 251.604V253.371L132.529 250.773H132.568V263ZM144.92 263H146.62V260.07H148.612V258.527H146.62V248.908H144.022L137.84 258.479V260.07H144.92V263ZM139.579 258.527V258.488L144.862 250.412H144.92V258.527H139.579Z" fill="#757272"/>
<path d="M179.263 263H180.962V248.908H179.244L175.494 251.604V253.371L179.224 250.773H179.263V263ZM189.76 263.234C192.69 263.234 194.77 261.262 194.78 258.439V258.42C194.78 255.715 192.827 253.752 190.122 253.752C188.754 253.752 187.583 254.26 186.919 255.207H186.879L187.358 250.471H193.979V248.908H185.913L185.19 256.945H186.743C186.928 256.623 187.153 256.35 187.407 256.115C188.032 255.549 188.852 255.266 189.809 255.266C191.674 255.266 193.012 256.594 193.022 258.449V258.469C193.022 260.363 191.694 261.691 189.78 261.691C188.09 261.691 186.84 260.627 186.665 259.23L186.655 259.152H184.926L184.936 259.26C185.141 261.555 187.065 263.234 189.76 263.234Z" fill="#757272"/>
<path d="M225.441 263H227.14V248.908H225.421L221.671 251.604V253.371L225.402 250.773H225.441V263ZM236.192 263.234C239.073 263.234 241.182 261.223 241.182 258.449V258.43C241.182 255.754 239.19 253.771 236.504 253.771C234.59 253.771 233.145 254.787 232.579 256.037H232.54C232.54 255.93 232.54 255.832 232.549 255.734C232.628 252.775 233.663 250.227 236.29 250.227C237.735 250.227 238.741 250.949 239.161 252.111L239.2 252.219H240.987L240.958 252.092C240.489 250.041 238.702 248.674 236.309 248.674C232.862 248.674 230.84 251.447 230.84 256.193V256.213C230.84 261.438 233.594 263.234 236.192 263.234ZM232.96 258.43V258.42C232.96 256.623 234.356 255.314 236.202 255.314C238.057 255.314 239.395 256.633 239.395 258.469V258.488C239.395 260.266 237.969 261.672 236.172 261.672C234.366 261.672 232.96 260.236 232.96 258.43Z" fill="#757272"/>
<path d="M272.644 263H274.343V248.908H272.624L268.874 251.604V253.371L272.605 250.773H272.644V263ZM279.108 263H280.954L287.223 250.539V248.908H277.897V250.471H285.485V250.51L279.108 263Z" fill="#757272"/>
<path d="M318.617 263H320.316V248.908H318.597L314.847 251.604V253.371L318.578 250.773H318.617V263ZM329.124 263.234C332.112 263.234 334.241 261.555 334.241 259.191V259.172C334.241 257.434 333.02 255.988 331.213 255.568V255.529C332.756 255.051 333.733 253.879 333.733 252.395V252.375C333.733 250.246 331.79 248.674 329.124 248.674C326.458 248.674 324.514 250.246 324.514 252.375V252.395C324.514 253.879 325.491 255.051 327.034 255.529V255.568C325.227 255.988 324.006 257.434 324.006 259.172V259.191C324.006 261.555 326.135 263.234 329.124 263.234ZM329.124 254.875C327.424 254.875 326.262 253.908 326.262 252.541V252.521C326.262 251.154 327.424 250.188 329.124 250.188C330.823 250.188 331.985 251.154 331.985 252.521V252.541C331.985 253.908 330.823 254.875 329.124 254.875ZM329.124 261.701C327.18 261.701 325.794 260.607 325.794 259.084V259.064C325.794 257.521 327.17 256.418 329.124 256.418C331.077 256.418 332.454 257.521 332.454 259.064V259.084C332.454 260.607 331.067 261.701 329.124 261.701Z" fill="#757272"/>
<path d="M364.941 263H366.64V248.908H364.921L361.171 251.604V253.371L364.902 250.773H364.941V263ZM375.555 248.674C372.674 248.674 370.565 250.686 370.565 253.459V253.479C370.565 256.154 372.557 258.137 375.243 258.137C377.157 258.137 378.602 257.121 379.169 255.871H379.208C379.208 255.979 379.208 256.076 379.198 256.174C379.12 259.133 378.085 261.682 375.458 261.682C374.012 261.682 373.006 260.959 372.586 259.797L372.547 259.689H370.76L370.79 259.816C371.258 261.867 373.045 263.234 375.438 263.234C378.885 263.234 380.907 260.461 380.907 255.715V255.695C380.907 250.471 378.153 248.674 375.555 248.674ZM375.545 256.594C373.69 256.594 372.352 255.275 372.352 253.439V253.42C372.352 251.643 373.778 250.236 375.575 250.236C377.381 250.236 378.788 251.672 378.788 253.479V253.488C378.788 255.285 377.391 256.594 375.545 256.594Z" fill="#757272"/>
<path d="M81.2241 311H90.5209V309.438H83.6362V309.398L86.9858 305.961C89.5737 303.314 90.2866 302.152 90.2866 300.609V300.59C90.2866 298.383 88.4213 296.674 85.8725 296.674C83.2455 296.674 81.1362 298.48 81.1362 300.922V300.98H82.8354V300.932C82.8354 299.418 84.144 298.207 85.9018 298.207C87.435 298.207 88.519 299.242 88.5288 300.678V300.697C88.5288 301.869 88.0893 302.631 86.185 304.613L81.2241 309.789V311ZM97.8443 311.234C101.086 311.234 103.03 308.432 103.03 303.959V303.939C103.03 299.467 101.086 296.674 97.8443 296.674C94.6021 296.674 92.6783 299.467 92.6783 303.939V303.959C92.6783 308.432 94.6021 311.234 97.8443 311.234ZM97.8443 309.701C95.6959 309.701 94.4459 307.494 94.4459 303.959V303.939C94.4459 300.404 95.6959 298.217 97.8443 298.217C99.9927 298.217 101.262 300.404 101.262 303.939V303.959C101.262 307.494 99.9927 309.701 97.8443 309.701Z" fill="#757272"/>
<path d="M129.355 311H138.652V309.438H131.767V309.398L135.117 305.961C137.705 303.314 138.417 302.152 138.417 300.609V300.59C138.417 298.383 136.552 296.674 134.003 296.674C131.376 296.674 129.267 298.48 129.267 300.922V300.98H130.966V300.932C130.966 299.418 132.275 298.207 134.033 298.207C135.566 298.207 136.65 299.242 136.66 300.678V300.697C136.66 301.869 136.22 302.631 134.316 304.613L129.355 309.789V311ZM144.657 311H146.356V296.908H144.637L140.887 299.604V301.371L144.618 298.773H144.657V311Z" fill="#757272"/>
<path d="M174.624 311H183.921V309.438H177.037V309.398L180.386 305.961C182.974 303.314 183.687 302.152 183.687 300.609V300.59C183.687 298.383 181.822 296.674 179.273 296.674C176.646 296.674 174.537 298.48 174.537 300.922V300.98H176.236V300.932C176.236 299.418 177.544 298.207 179.302 298.207C180.835 298.207 181.919 299.242 181.929 300.678V300.697C181.929 301.869 181.49 302.631 179.585 304.613L174.624 309.789V311ZM186.333 311H195.629V309.438H188.745V309.398L192.094 305.961C194.682 303.314 195.395 302.152 195.395 300.609V300.59C195.395 298.383 193.53 296.674 190.981 296.674C188.354 296.674 186.245 298.48 186.245 300.922V300.98H187.944V300.932C187.944 299.418 189.253 298.207 191.01 298.207C192.544 298.207 193.628 299.242 193.637 300.678V300.697C193.637 301.869 193.198 302.631 191.294 304.613L186.333 309.789V311Z" fill="#757272"/>
<path d="M220.871 311H230.167V309.438H223.283V309.398L226.632 305.961C229.22 303.314 229.933 302.152 229.933 300.609V300.59C229.933 298.383 228.068 296.674 225.519 296.674C222.892 296.674 220.783 298.48 220.783 300.922V300.98H222.482V300.932C222.482 299.418 223.79 298.207 225.548 298.207C227.081 298.207 228.165 299.242 228.175 300.678V300.697C228.175 301.869 227.736 302.631 225.831 304.613L220.871 309.789V311ZM237.325 311.234C240.147 311.234 242.217 309.496 242.217 307.143V307.123C242.217 305.121 240.821 303.842 238.77 303.666V303.627C240.528 303.256 241.758 302.064 241.758 300.326V300.307C241.758 298.168 239.991 296.674 237.305 296.674C234.669 296.674 232.852 298.207 232.628 300.502L232.618 300.6H234.307L234.317 300.502C234.463 299.076 235.645 298.197 237.305 298.197C239.024 298.197 239.991 299.047 239.991 300.521V300.541C239.991 301.947 238.819 302.982 237.139 302.982H235.45V304.467H237.217C239.19 304.467 240.43 305.434 240.43 307.162V307.182C240.43 308.676 239.17 309.711 237.325 309.711C235.45 309.711 234.18 308.754 234.034 307.367L234.024 307.27H232.335L232.344 307.387C232.53 309.613 234.415 311.234 237.325 311.234Z" fill="#757272"/>
<path d="M267.488 311H276.785V309.438H269.9V309.398L273.249 305.961C275.837 303.314 276.55 302.152 276.55 300.609V300.59C276.55 298.383 274.685 296.674 272.136 296.674C269.509 296.674 267.4 298.48 267.4 300.922V300.98H269.099V300.932C269.099 299.418 270.408 298.207 272.165 298.207C273.699 298.207 274.783 299.242 274.792 300.678V300.697C274.792 301.869 274.353 302.631 272.449 304.613L267.488 309.789V311ZM285.407 311H287.106V308.07H289.098V306.527H287.106V296.908H284.508L278.327 306.479V308.07H285.407V311ZM280.065 306.527V306.488L285.348 298.412H285.407V306.527H280.065Z" fill="#757272"/>
<path d="M313.939 311H323.236V309.438H316.351V309.398L319.701 305.961C322.289 303.314 323.001 302.152 323.001 300.609V300.59C323.001 298.383 321.136 296.674 318.587 296.674C315.96 296.674 313.851 298.48 313.851 300.922V300.98H315.55V300.932C315.55 299.418 316.859 298.207 318.617 298.207C320.15 298.207 321.234 299.242 321.244 300.678V300.697C321.244 301.869 320.804 302.631 318.9 304.613L313.939 309.789V311ZM330.491 311.234C333.42 311.234 335.501 309.262 335.51 306.439V306.42C335.51 303.715 333.557 301.752 330.852 301.752C329.485 301.752 328.313 302.26 327.649 303.207H327.61L328.088 298.471H334.71V296.908H326.643L325.92 304.945H327.473C327.659 304.623 327.883 304.35 328.137 304.115C328.762 303.549 329.583 303.266 330.54 303.266C332.405 303.266 333.743 304.594 333.753 306.449V306.469C333.753 308.363 332.424 309.691 330.51 309.691C328.821 309.691 327.571 308.627 327.395 307.23L327.385 307.152H325.657L325.667 307.26C325.872 309.555 327.795 311.234 330.491 311.234Z" fill="#757272"/>
<path d="M360.117 311H369.414V309.438H362.529V309.398L365.878 305.961C368.466 303.314 369.179 302.152 369.179 300.609V300.59C369.179 298.383 367.314 296.674 364.765 296.674C362.138 296.674 360.029 298.48 360.029 300.922V300.98H361.728V300.932C361.728 299.418 363.037 298.207 364.794 298.207C366.328 298.207 367.412 299.242 367.421 300.678V300.697C367.421 301.869 366.982 302.631 365.078 304.613L360.117 309.789V311ZM376.922 311.234C379.803 311.234 381.913 309.223 381.913 306.449V306.43C381.913 303.754 379.92 301.771 377.235 301.771C375.321 301.771 373.876 302.787 373.309 304.037H373.27C373.27 303.93 373.27 303.832 373.28 303.734C373.358 300.775 374.393 298.227 377.02 298.227C378.465 298.227 379.471 298.949 379.891 300.111L379.93 300.219H381.717L381.688 300.092C381.219 298.041 379.432 296.674 377.04 296.674C373.592 296.674 371.571 299.447 371.571 304.193V304.213C371.571 309.438 374.325 311.234 376.922 311.234ZM373.69 306.43V306.42C373.69 304.623 375.086 303.314 376.932 303.314C378.788 303.314 380.126 304.633 380.126 306.469V306.488C380.126 308.266 378.7 309.672 376.903 309.672C375.096 309.672 373.69 308.236 373.69 306.43Z" fill="#757272"/>
<path d="M81.8198 359H91.1166V357.438H84.2319V357.398L87.5815 353.961C90.1694 351.314 90.8823 350.152 90.8823 348.609V348.59C90.8823 346.383 89.017 344.674 86.4682 344.674C83.8413 344.674 81.7319 346.48 81.7319 348.922V348.98H83.4311V348.932C83.4311 347.418 84.7397 346.207 86.4975 346.207C88.0307 346.207 89.1147 347.242 89.1245 348.678V348.697C89.1245 349.869 88.685 350.631 86.7807 352.613L81.8198 357.789V359ZM94.3384 359H96.1841L102.454 346.539V344.908H93.1275V346.471H100.715V346.51L94.3384 359Z" fill="#757272"/>
<path d="M127.792 359H137.089V357.438H130.205V357.398L133.554 353.961C136.142 351.314 136.855 350.152 136.855 348.609V348.59C136.855 346.383 134.99 344.674 132.441 344.674C129.814 344.674 127.705 346.48 127.705 348.922V348.98H129.404V348.932C129.404 347.418 130.712 346.207 132.47 346.207C134.003 346.207 135.087 347.242 135.097 348.678V348.697C135.097 349.869 134.658 350.631 132.753 352.613L127.792 357.789V359ZM144.354 359.234C147.342 359.234 149.471 357.555 149.471 355.191V355.172C149.471 353.434 148.251 351.988 146.444 351.568V351.529C147.987 351.051 148.963 349.879 148.963 348.395V348.375C148.963 346.246 147.02 344.674 144.354 344.674C141.688 344.674 139.745 346.246 139.745 348.375V348.395C139.745 349.879 140.721 351.051 142.264 351.529V351.568C140.458 351.988 139.237 353.434 139.237 355.172V355.191C139.237 357.555 141.366 359.234 144.354 359.234ZM144.354 350.875C142.655 350.875 141.493 349.908 141.493 348.541V348.521C141.493 347.154 142.655 346.188 144.354 346.188C146.053 346.188 147.215 347.154 147.215 348.521V348.541C147.215 349.908 146.053 350.875 144.354 350.875ZM144.354 357.701C142.411 357.701 141.024 356.607 141.024 355.084V355.064C141.024 353.521 142.401 352.418 144.354 352.418C146.307 352.418 147.684 353.521 147.684 355.064V355.084C147.684 356.607 146.297 357.701 144.354 357.701Z" fill="#757272"/>
<path d="M174.117 359H183.414V357.438H176.529V357.398L179.878 353.961C182.466 351.314 183.179 350.152 183.179 348.609V348.59C183.179 346.383 181.314 344.674 178.765 344.674C176.138 344.674 174.029 346.48 174.029 348.922V348.98H175.728V348.932C175.728 347.418 177.037 346.207 178.794 346.207C180.328 346.207 181.412 347.242 181.421 348.678V348.697C181.421 349.869 180.982 350.631 179.078 352.613L174.117 357.789V359ZM190.786 344.674C187.905 344.674 185.795 346.686 185.795 349.459V349.479C185.795 352.154 187.788 354.137 190.473 354.137C192.387 354.137 193.833 353.121 194.399 351.871H194.438C194.438 351.979 194.438 352.076 194.428 352.174C194.35 355.133 193.315 357.682 190.688 357.682C189.243 357.682 188.237 356.959 187.817 355.797L187.778 355.689H185.991L186.02 355.816C186.489 357.867 188.276 359.234 190.669 359.234C194.116 359.234 196.137 356.461 196.137 351.715V351.695C196.137 346.471 193.383 344.674 190.786 344.674ZM190.776 352.594C188.92 352.594 187.583 351.275 187.583 349.439V349.42C187.583 347.643 189.008 346.236 190.805 346.236C192.612 346.236 194.018 347.672 194.018 349.479V349.488C194.018 351.285 192.622 352.594 190.776 352.594Z" fill="#757272"/>
<path d="M225.216 359.234C228.039 359.234 230.109 357.496 230.109 355.143V355.123C230.109 353.121 228.712 351.842 226.662 351.666V351.627C228.419 351.256 229.65 350.064 229.65 348.326V348.307C229.65 346.168 227.882 344.674 225.197 344.674C222.56 344.674 220.744 346.207 220.519 348.502L220.509 348.6H222.199L222.208 348.502C222.355 347.076 223.537 346.197 225.197 346.197C226.915 346.197 227.882 347.047 227.882 348.521V348.541C227.882 349.947 226.71 350.982 225.031 350.982H223.341V352.467H225.109C227.081 352.467 228.322 353.434 228.322 355.162V355.182C228.322 356.676 227.062 357.711 225.216 357.711C223.341 357.711 222.072 356.754 221.925 355.367L221.915 355.27H220.226L220.236 355.387C220.421 357.613 222.306 359.234 225.216 359.234ZM237.598 359.234C240.84 359.234 242.784 356.432 242.784 351.959V351.939C242.784 347.467 240.84 344.674 237.598 344.674C234.356 344.674 232.432 347.467 232.432 351.939V351.959C232.432 356.432 234.356 359.234 237.598 359.234ZM237.598 357.701C235.45 357.701 234.2 355.494 234.2 351.959V351.939C234.2 348.404 235.45 346.217 237.598 346.217C239.747 346.217 241.016 348.404 241.016 351.939V351.959C241.016 355.494 239.747 357.701 237.598 357.701Z" fill="#757272"/>
<path d="M81.1875 403H83.6973V391.027H87.9062V388.908H76.9688V391.027H81.1875V403ZM90.5909 391.164C91.3527 391.164 91.9386 390.559 91.9386 389.836C91.9386 389.094 91.3527 388.498 90.5909 388.498C89.8292 388.498 89.2335 389.094 89.2335 389.836C89.2335 390.559 89.8292 391.164 90.5909 391.164ZM89.3702 403H91.8019V392.648H89.3702V403ZM94.2522 403H96.6838V396.662C96.6838 395.402 97.5041 394.484 98.676 394.484C99.8088 394.484 100.512 395.207 100.512 396.369V403H102.875V396.604C102.875 395.354 103.676 394.484 104.848 394.484C106.039 394.484 106.703 395.217 106.703 396.496V403H109.135V395.891C109.135 393.82 107.797 392.434 105.756 392.434C104.262 392.434 103.031 393.234 102.533 394.523H102.475C102.094 393.195 101.049 392.434 99.6038 392.434C98.2366 392.434 97.1721 393.176 96.7327 394.309H96.6838V392.648H94.2522V403ZM116.019 403.205C118.724 403.205 120.247 401.604 120.57 400.012L120.599 399.904H118.324L118.304 399.973C118.07 400.666 117.279 401.311 116.068 401.311C114.486 401.311 113.49 400.236 113.451 398.42H120.697V397.639C120.697 394.514 118.861 392.434 115.902 392.434C112.943 392.434 111.038 394.582 111.038 397.844V397.854C111.038 401.145 112.913 403.205 116.019 403.205ZM115.931 394.338C117.22 394.338 118.158 395.158 118.333 396.799H113.48C113.675 395.207 114.642 394.338 115.931 394.338Z" fill="black"/>
<rect x="195.5" y="378" width="86" height="36" rx="6" fill="#767680" fill-opacity="0.12"/>
<path d="M256.723 405H258.592V401.777H260.784V400.08H258.592V389.499H255.735L248.935 400.026V401.777H256.723V405ZM250.847 400.08V400.037L256.659 391.153H256.723V400.08H250.847ZM266.956 405H268.825V389.499H266.935L262.81 392.464V394.408L266.913 391.551H266.956V405Z" fill="black"/>
<path d="M241.137 394.836C241.824 394.836 242.361 394.299 242.361 393.611C242.361 392.924 241.824 392.387 241.137 392.387C240.449 392.387 239.912 392.924 239.912 393.611C239.912 394.299 240.449 394.836 241.137 394.836ZM241.137 403.15C241.824 403.15 242.361 402.613 242.361 401.926C242.361 401.238 241.824 400.701 241.137 400.701C240.449 400.701 239.912 401.238 239.912 401.926C239.912 402.613 240.449 403.15 241.137 403.15Z" fill="black"/>
<path d="M213.89 405.258C217.457 405.258 219.594 402.175 219.594 397.255V397.233C219.594 392.313 217.457 389.241 213.89 389.241C210.324 389.241 208.208 392.313 208.208 397.233V397.255C208.208 402.175 210.324 405.258 213.89 405.258ZM213.89 403.571C211.527 403.571 210.152 401.144 210.152 397.255V397.233C210.152 393.345 211.527 390.938 213.89 390.938C216.254 390.938 217.65 393.345 217.65 397.233V397.255C217.65 401.144 216.254 403.571 213.89 403.571ZM227.636 389.241C224.467 389.241 222.146 391.454 222.146 394.505V394.526C222.146 397.47 224.338 399.65 227.292 399.65C229.397 399.65 230.987 398.533 231.61 397.158H231.653C231.653 397.276 231.653 397.384 231.643 397.491C231.557 400.746 230.418 403.55 227.528 403.55C225.938 403.55 224.832 402.755 224.37 401.477L224.327 401.358H222.361L222.394 401.498C222.909 403.754 224.875 405.258 227.507 405.258C231.299 405.258 233.522 402.207 233.522 396.986V396.965C233.522 391.218 230.493 389.241 227.636 389.241ZM227.625 397.953C225.584 397.953 224.112 396.503 224.112 394.483V394.462C224.112 392.507 225.681 390.96 227.657 390.96C229.645 390.96 231.191 392.539 231.191 394.526V394.537C231.191 396.514 229.655 397.953 227.625 397.953Z" fill="black"/>
<g clip-path="url(#clip1_400_155)">
<rect x="287.5" y="378" width="101" height="36" rx="8.91" fill="#767680" fill-opacity="0.12"/>
<g filter="url(#filter1_dd_400_155)">
<rect x="289.5" y="380" width="48.5" height="32" rx="6.93" fill="white"/>
<rect x="289.25" y="379.75" width="49" height="32.5" rx="7.18" stroke="black" stroke-opacity="0.04" stroke-width="0.5"/>
<path d="M304.055 401H305.769L306.531 398.632H309.92L310.688 401H312.402L309.152 391.84H307.305L304.055 401ZM308.175 393.542H308.283L309.514 397.369H306.943L308.175 393.542ZM313.897 401H315.376V394.487H315.483L318.023 401H319.14L321.679 394.487H321.793V401H323.266V391.84H321.387L318.638 398.886H318.53L315.775 391.84H313.897V401Z" fill="black"/>
</g>
<path d="M353.71 401H355.132V397.871H357.278C359.074 397.871 360.318 396.646 360.318 394.855V394.843C360.318 393.046 359.074 391.84 357.278 391.84H353.71V401ZM356.922 393.04C358.154 393.04 358.871 393.707 358.871 394.849V394.862C358.871 396.011 358.154 396.677 356.922 396.677H355.132V393.04H356.922ZM362.073 401H363.368V394.278H363.469L366.154 401H367.208L369.899 394.278H369.995V401H371.29V391.84H369.652L366.732 399.146H366.63L363.71 391.84H362.073V401Z" fill="black"/>
</g>
</g>
<defs>
<filter id="filter0_d_400_155" x="0" y="0" width="464.5" height="500" filterUnits="userSpaceOnUse" color-interpolation-filters="sRGB">
<feFlood flood-opacity="0" result="BackgroundImageFix"/>
<feColorMatrix in="SourceAlpha" type="matrix" values="0 0 0 0 0 0 0 0 0 0 0 0 0 0 0 0 0 0 127 0" result="hardAlpha"/>
<feOffset dy="10"/>
<feGaussianBlur stdDeviation="30"/>
<feColorMatrix type="matrix" values="0 0 0 0 0 0 0 0 0 0 0 0 0 0 0 0 0 0 0.1 0"/>
<feBlend mode="normal" in2="BackgroundImageFix" result="effect1_dropShadow_400_155"/>
<feBlend mode="normal" in="SourceGraphic" in2="effect1_dropShadow_400_155" result="shape"/>
</filter>
<filter id="filter1_dd_400_155" x="281" y="374.5" width="65.5" height="49" filterUnits="userSpaceOnUse" color-interpolation-filters="sRGB">
<feFlood flood-opacity="0" result="BackgroundImageFix"/>
<feColorMatrix in="SourceAlpha" type="matrix" values="0 0 0 0 0 0 0 0 0 0 0 0 0 0 0 0 0 0 127 0" result="hardAlpha"/>
<feOffset dy="3"/>
<feGaussianBlur stdDeviation="0.5"/>
<feColorMatrix type="matrix" values="0 0 0 0 0 0 0 0 0 0 0 0 0 0 0 0 0 0 0.04 0"/>
<feBlend mode="normal" in2="BackgroundImageFix" result="effect1_dropShadow_400_155"/>
<feColorMatrix in="SourceAlpha" type="matrix" values="0 0 0 0 0 0 0 0 0 0 0 0 0 0 0 0 0 0 127 0" result="hardAlpha"/>
<feOffset dy="3"/>
<feGaussianBlur stdDeviation="4"/>
<feColorMatrix type="matrix" values="0 0 0 0 0 0 0 0 0 0 0 0 0 0 0 0 0 0 0.12 0"/>
<feBlend mode="normal" in2="effect1_dropShadow_400_155" result="effect2_dropShadow_400_155"/>
<feBlend mode="normal" in="SourceGraphic" in2="effect2_dropShadow_400_155" result="shape"/>
</filter>
<clipPath id="clip0_400_155">
<rect width="111.69" height="24" fill="white" transform="translate(76 68)"/>
</clipPath>
<clipPath id="clip1_400_155">
<rect x="287.5" y="378" width="101" height="36" rx="8.91" fill="white"/>
</clipPath>
</defs>
</svg>
