<svg width="163" height="48" viewBox="0 0 163 48" fill="none" xmlns="http://www.w3.org/2000/svg">
<path d="M0 12.8C0 8.31958 0 6.07937 0.871948 4.36808C1.63893 2.86278 2.86278 1.63893 4.36808 0.871948C6.07937 0 8.31958 0 12.8 0H150.2C154.68 0 156.921 0 158.632 0.871948C160.137 1.63893 161.361 2.86278 162.128 4.36808C163 6.07937 163 8.31958 163 12.8V35.2C163 39.6804 163 41.9206 162.128 43.6319C161.361 45.1372 160.137 46.3611 158.632 47.1281C156.921 48 154.68 48 150.2 48H12.8C8.31958 48 6.07937 48 4.36808 47.1281C2.86278 46.3611 1.63893 45.1372 0.871948 43.6319C0 41.9206 0 39.6804 0 35.2V12.8Z" fill="#733CFF"/>
<path d="M31.9523 34C32.6396 34 33.1265 33.4081 33.4797 32.4916L39.7327 16.1575C39.9045 15.7184 40 15.327 40 15.0024C40 14.3819 39.6181 14 38.9976 14C38.673 14 38.2816 14.0955 37.8425 14.2673L21.4224 20.5585C20.6205 20.864 20 21.3508 20 22.0477C20 22.926 20.6683 23.222 21.5847 23.4988L26.7399 25.0644C27.3508 25.2554 27.6945 25.2363 28.105 24.8544L38.5776 15.0692C38.7017 14.9547 38.8449 14.9737 38.9403 15.0597C39.0358 15.1551 39.0453 15.2983 38.9308 15.4224L29.1838 25.9332C28.8115 26.3246 28.7828 26.6492 28.9642 27.2888L30.4821 32.3294C30.7685 33.2936 31.0644 34 31.9523 34Z" fill="white"/>
<path d="M56.7207 30.2988C53.2509 30.2988 51.0927 27.8833 51.0927 24.0151V23.9985C51.0927 20.1719 53.2758 17.7231 56.6875 17.7231C59.4516 17.7231 61.4438 19.3086 61.8505 21.6494L61.8588 21.7324H59.7338L59.7089 21.6494C59.3188 20.3379 58.2231 19.5742 56.6875 19.5742C54.5957 19.5742 53.2758 21.2759 53.2758 23.9819V23.9985C53.2758 26.7461 54.6206 28.4478 56.7539 28.4478C58.58 28.4478 59.8252 27.3105 59.8501 25.6089L59.8584 25.3599H56.9863V23.7246H61.9585V25.2188C61.9585 28.3149 59.9165 30.2988 56.7207 30.2988ZM67.7096 30.1826C65.0119 30.1826 63.3766 28.373 63.3766 25.4844V25.4761C63.3766 22.6206 65.0285 20.7529 67.61 20.7529C70.1916 20.7529 71.7853 22.5625 71.7853 25.3018V25.9824H65.4435C65.4684 27.6094 66.3483 28.5557 67.7511 28.5557C68.8717 28.5557 69.5109 27.9912 69.7101 27.5762L69.735 27.5181H71.7023L71.6774 27.5928C71.3869 28.7632 70.175 30.1826 67.7096 30.1826ZM67.6349 22.3716C66.4811 22.3716 65.6178 23.1519 65.4601 24.5962H69.7682C69.6271 23.1104 68.7887 22.3716 67.6349 22.3716ZM77.0136 30.0415C74.9301 30.0415 74.0751 29.3442 74.0751 27.5928V22.5293H72.6639V20.9272H74.0751V18.7026H76.1752V20.9272H78.0927V22.5293H76.1752V27.103C76.1752 28.0078 76.5321 28.3896 77.3954 28.3896C77.6859 28.3896 77.8436 28.3813 78.0927 28.3564V29.9502C77.7938 30.0083 77.412 30.0415 77.0136 30.0415ZM88.242 30.2988C85.4612 30.2988 83.6932 28.9292 83.5437 26.8623L83.5354 26.7461H85.6106L85.6189 26.8291C85.7185 27.8335 86.7893 28.4976 88.3084 28.4976C89.7527 28.4976 90.7654 27.7837 90.7654 26.7544V26.7461C90.7654 25.8828 90.1429 25.3599 88.5989 25.0278L87.3123 24.7622C84.8636 24.2476 83.8011 23.1021 83.8011 21.3174V21.3091C83.8011 19.1675 85.6438 17.7231 88.2337 17.7231C90.8899 17.7231 92.5418 19.1758 92.6912 21.1016L92.6995 21.2095H90.6492L90.6326 21.1099C90.4832 20.1802 89.595 19.5161 88.2254 19.5244C86.8973 19.5244 85.951 20.147 85.951 21.168V21.1763C85.951 22.0229 86.5569 22.5542 88.0511 22.8696L89.3377 23.1436C91.8611 23.6748 92.9153 24.6875 92.9153 26.4971V26.5054C92.9153 28.8379 91.1141 30.2988 88.242 30.2988ZM98.2681 30.0415C96.1846 30.0415 95.3296 29.3442 95.3296 27.5928V22.5293H93.9185V20.9272H95.3296V18.7026H97.4297V20.9272H99.3472V22.5293H97.4297V27.103C97.4297 28.0078 97.7866 28.3896 98.6499 28.3896C98.9404 28.3896 99.0981 28.3813 99.3472 28.3564V29.9502C99.0483 30.0083 98.6665 30.0415 98.2681 30.0415ZM103.471 30.1494C101.745 30.1494 100.491 29.0869 100.491 27.4351V27.4185C100.491 25.7998 101.728 24.8535 103.936 24.7207L106.269 24.5796V23.7993C106.269 22.8945 105.679 22.3965 104.567 22.3965C103.621 22.3965 103.007 22.7368 102.799 23.3345L102.791 23.3677H100.84L100.848 23.293C101.048 21.7656 102.509 20.7529 104.667 20.7529C106.999 20.7529 108.311 21.8818 108.311 23.7993V30H106.269V28.7549H106.128C105.63 29.6348 104.667 30.1494 103.471 30.1494ZM102.533 27.3354C102.533 28.1074 103.189 28.564 104.102 28.564C105.347 28.564 106.269 27.7505 106.269 26.6714V25.9409L104.227 26.0737C103.073 26.1484 102.533 26.5718 102.533 27.3188V27.3354ZM110.385 30V20.9272H112.452V22.3218H112.593C112.9 21.3506 113.73 20.7778 114.925 20.7778C115.241 20.7778 115.564 20.8193 115.764 20.8774V22.7285C115.432 22.6621 115.091 22.6123 114.734 22.6123C113.356 22.6123 112.452 23.4341 112.452 24.729V30H110.385ZM121.033 30.0415C118.95 30.0415 118.095 29.3442 118.095 27.5928V22.5293H116.684V20.9272H118.095V18.7026H120.195V20.9272H122.112V22.5293H120.195V27.103C120.195 28.0078 120.552 28.3896 121.415 28.3896C121.706 28.3896 121.863 28.3813 122.112 28.3564V29.9502C121.814 30.0083 121.432 30.0415 121.033 30.0415ZM127.565 30.1826C124.867 30.1826 123.232 28.373 123.232 25.4844V25.4761C123.232 22.6206 124.884 20.7529 127.465 20.7529C130.047 20.7529 131.64 22.5625 131.64 25.3018V25.9824H125.299C125.324 27.6094 126.203 28.5557 127.606 28.5557C128.727 28.5557 129.366 27.9912 129.565 27.5762L129.59 27.5181H131.557L131.533 27.5928C131.242 28.7632 130.03 30.1826 127.565 30.1826ZM127.49 22.3716C126.336 22.3716 125.473 23.1519 125.315 24.5962H129.623C129.482 23.1104 128.644 22.3716 127.49 22.3716ZM136.57 30.1494C134.295 30.1494 132.851 28.3481 132.851 25.4761V25.4595C132.851 22.5708 134.271 20.7778 136.57 20.7778C137.815 20.7778 138.853 21.3921 139.326 22.3716H139.467V17.416H141.542V30H139.467V28.5806H139.326C138.828 29.5684 137.848 30.1494 136.57 30.1494ZM137.217 28.4062C138.628 28.4062 139.5 27.2939 139.5 25.4761V25.4595C139.5 23.6416 138.62 22.521 137.217 22.521C135.814 22.521 134.951 23.6333 134.951 25.4595V25.4761C134.951 27.3022 135.806 28.4062 137.217 28.4062Z" fill="white"/>
</svg>
