<svg width="224" height="53" viewBox="0 0 224 53" fill="none" xmlns="http://www.w3.org/2000/svg">
<path d="M210.924 35.3825L210.911 30.1062H211.612L218.277 22.6567H223.384L215.186 31.7845H214.28L210.924 35.3825ZM206.939 41.2021V16.4749H211.31V41.2021H206.939ZM218.578 41.2021L212.541 32.7625L215.488 29.6837L223.806 41.2021H218.578Z" fill="#180C26"/>
<path d="M195.916 41.5643C194.064 41.5643 192.475 41.1579 191.146 40.3449C189.826 39.5319 188.808 38.409 188.092 36.9763C187.383 35.5355 187.029 33.8773 187.029 32.0018C187.029 30.1183 187.392 28.4561 188.116 27.0153C188.84 25.5665 189.863 24.4396 191.183 23.6347C192.511 22.8217 194.08 22.4152 195.892 22.4152C197.397 22.4152 198.729 22.6929 199.888 23.2483C201.055 23.7956 201.985 24.5724 202.677 25.5785C203.369 26.5766 203.764 27.7438 203.86 29.08H199.683C199.514 28.1865 199.111 27.4419 198.475 26.8463C197.847 26.2426 197.006 25.9408 195.952 25.9408C195.058 25.9408 194.274 26.1822 193.597 26.6652C192.921 27.1401 192.394 27.8243 192.016 28.7177C191.646 29.6112 191.46 30.6818 191.46 31.9294C191.46 33.1931 191.646 34.2798 192.016 35.1893C192.386 36.0909 192.905 36.7871 193.573 37.2781C194.249 37.7611 195.042 38.0026 195.952 38.0026C196.596 38.0026 197.171 37.8818 197.678 37.6403C198.194 37.3908 198.624 37.0326 198.97 36.5658C199.316 36.0989 199.554 35.5314 199.683 34.8633H203.86C203.756 36.1754 203.369 37.3385 202.701 38.3527C202.033 39.3588 201.124 40.1477 199.972 40.7192C198.821 41.2826 197.469 41.5643 195.916 41.5643Z" fill="#180C26"/>
<path d="M175.74 41.5643C173.929 41.5643 172.359 41.1659 171.031 40.369C169.703 39.5722 168.673 38.4573 167.94 37.0246C167.216 35.5918 166.854 33.9176 166.854 32.0018C166.854 30.0861 167.216 28.4079 167.94 26.967C168.673 25.5262 169.703 24.4074 171.031 23.6105C172.359 22.8136 173.929 22.4152 175.74 22.4152C177.551 22.4152 179.121 22.8136 180.449 23.6105C181.777 24.4074 182.803 25.5262 183.528 26.967C184.26 28.4079 184.626 30.0861 184.626 32.0018C184.626 33.9176 184.26 35.5918 183.528 37.0246C182.803 38.4573 181.777 39.5722 180.449 40.369C179.121 41.1659 177.551 41.5643 175.74 41.5643ZM175.764 38.0629C176.746 38.0629 177.567 37.7933 178.227 37.254C178.887 36.7066 179.378 35.9741 179.7 35.0565C180.03 34.1389 180.195 33.1167 180.195 31.9898C180.195 30.8548 180.03 29.8285 179.7 28.9109C179.378 27.9853 178.887 27.2488 178.227 26.7014C177.567 26.1541 176.746 25.8804 175.764 25.8804C174.758 25.8804 173.921 26.1541 173.253 26.7014C172.593 27.2488 172.098 27.9853 171.768 28.9109C171.446 29.8285 171.285 30.8548 171.285 31.9898C171.285 33.1167 171.446 34.1389 171.768 35.0565C172.098 35.9741 172.593 36.7066 173.253 37.254C173.921 37.7933 174.758 38.0629 175.764 38.0629Z" fill="#180C26"/>
<path d="M164.704 22.6567V26.0373H154.043V22.6567H164.704ZM156.675 18.2135H161.046V35.624C161.046 36.2116 161.135 36.6623 161.312 36.9763C161.497 37.2821 161.738 37.4914 162.036 37.6041C162.334 37.7168 162.664 37.7731 163.026 37.7731C163.3 37.7731 163.549 37.753 163.775 37.7128C164.008 37.6725 164.185 37.6363 164.306 37.6041L165.043 41.021C164.809 41.1015 164.475 41.19 164.04 41.2866C163.614 41.3832 163.091 41.4396 162.471 41.4557C161.376 41.4879 160.39 41.3229 159.513 40.9606C158.635 40.5904 157.939 40.0189 157.424 39.2462C156.917 38.4734 156.667 37.5075 156.675 36.3484V18.2135Z" fill="#180C26"/>
<path d="M147.505 23.2724C147.393 22.218 146.918 21.397 146.081 20.8094C145.251 20.2218 144.173 19.928 142.845 19.928C141.911 19.928 141.11 20.0688 140.442 20.3506C139.774 20.6323 139.263 21.0146 138.909 21.4976C138.555 21.9805 138.373 22.5319 138.365 23.1517C138.365 23.6668 138.482 24.1136 138.715 24.4919C138.957 24.8702 139.283 25.1922 139.693 25.4578C140.104 25.7154 140.559 25.9327 141.058 26.1098C141.557 26.2869 142.06 26.4358 142.567 26.5565L144.885 27.1361C145.819 27.3534 146.716 27.6472 147.578 28.0175C148.447 28.3877 149.224 28.8546 149.908 29.418C150.6 29.9815 151.148 30.6616 151.55 31.4585C151.952 32.2554 152.154 33.1891 152.154 34.2596C152.154 35.7085 151.783 36.9843 151.043 38.0871C150.302 39.1818 149.232 40.039 147.831 40.6588C146.439 41.2705 144.752 41.5764 142.772 41.5764C140.849 41.5764 139.178 41.2786 137.762 40.6829C136.353 40.0873 135.25 39.218 134.453 38.075C133.665 36.932 133.238 35.5395 133.174 33.8974H137.581C137.645 34.7587 137.911 35.4751 138.377 36.0466C138.844 36.6181 139.452 37.0447 140.201 37.3264C140.957 37.6081 141.802 37.749 142.736 37.749C143.71 37.749 144.563 37.6041 145.296 37.3143C146.036 37.0165 146.616 36.606 147.034 36.0828C147.453 35.5516 147.666 34.9318 147.674 34.2234C147.666 33.5795 147.477 33.0482 147.107 32.6297C146.737 32.2031 146.217 31.8489 145.549 31.5672C144.889 31.2774 144.117 31.0198 143.231 30.7945L140.418 30.07C138.381 29.5468 136.772 28.754 135.588 27.6915C134.413 26.6209 133.826 25.2002 133.826 23.4294C133.826 21.9725 134.22 20.6967 135.009 19.602C135.806 18.5073 136.888 17.6581 138.257 17.0544C139.625 16.4427 141.175 16.1368 142.905 16.1368C144.66 16.1368 146.197 16.4427 147.517 17.0544C148.845 17.6581 149.888 18.4992 150.644 19.5778C151.401 20.6484 151.791 21.8799 151.816 23.2724H147.505Z" fill="#180C26"/>
<path d="M118.833 22.6567L122.575 29.5025L126.379 22.6567H131.003L125.413 31.9294L131.1 41.2021H126.499L122.575 34.5253L118.688 41.2021H114.051L119.702 31.9294L114.196 22.6567H118.833Z" fill="#180C26"/>
<path d="M104.223 41.5643C102.364 41.5643 100.758 41.178 99.4057 40.4052C98.0615 39.6245 97.0271 38.5217 96.3027 37.097C95.5783 35.6642 95.2161 33.9779 95.2161 32.0381C95.2161 30.1304 95.5783 28.4561 96.3027 27.0153C97.0352 25.5665 98.0574 24.4396 99.3695 23.6347C100.681 22.8217 102.223 22.4152 103.994 22.4152C105.137 22.4152 106.215 22.6003 107.23 22.9706C108.252 23.3328 109.153 23.8963 109.934 24.6609C110.723 25.4256 111.343 26.3996 111.793 27.5828C112.244 28.758 112.47 30.1586 112.47 31.7845V33.1247H97.2686V30.1787H108.28C108.272 29.3416 108.091 28.597 107.737 27.945C107.382 27.285 106.887 26.7658 106.252 26.3875C105.624 26.0092 104.891 25.82 104.054 25.82C103.161 25.82 102.376 26.0374 101.7 26.472C101.024 26.8986 100.496 27.4621 100.118 28.1623C99.7478 28.8546 99.5586 29.6152 99.5506 30.4443V33.016C99.5506 34.0946 99.7478 35.0203 100.142 35.793C100.537 36.5577 101.088 37.1453 101.796 37.5558C102.505 37.9583 103.334 38.1595 104.284 38.1595C104.919 38.1595 105.495 38.071 106.01 37.8939C106.525 37.7088 106.972 37.4391 107.35 37.0849C107.729 36.7308 108.014 36.2921 108.208 35.7689L112.289 36.2277C112.031 37.3063 111.54 38.2481 110.815 39.053C110.099 39.8499 109.182 40.4696 108.063 40.9124C106.944 41.347 105.664 41.5643 104.223 41.5643Z" fill="#180C26"/>
<path d="M92.0285 16.4749V41.2021H87.6577V16.4749H92.0285Z" fill="#180C26"/>
<path d="M68.439 41.2021V16.4749H84.2799V20.2298H72.9184V26.9429H83.1932V30.6979H72.9184V41.2021H68.439Z" fill="#180C26"/>
<path d="M51.4526 26.2021C51.4526 40.5705 39.9305 52.2021 25.7263 52.2021C11.5221 52.2021 0 40.5705 0 26.2021C0 11.8337 11.4947 0.202118 25.699 0.202118C39.9305 0.202118 51.4526 11.8337 51.4526 26.2021Z" fill="url(#paint0_linear_1780_6134)"/>
<path d="M21.1832 10.3558C21.4022 9.56211 22.2232 9.06948 23.0169 9.28843L36.2085 12.8737C37.0022 13.0926 37.4674 13.9137 37.2758 14.7074L33.6906 28.2547C33.4716 29.0484 32.6506 29.5411 31.8569 29.3221L18.6379 25.7642C17.8443 25.5453 17.379 24.7242 17.5706 23.9305L21.1832 10.3558Z" fill="#F8F3FF"/>
<path d="M22.4968 12.4085C22.6884 11.7243 23.3726 11.3411 24.0295 11.5053L34.2653 14.2695C34.9495 14.4611 35.3326 15.1453 35.1684 15.8295L32.1853 27.1327C31.9937 27.8169 31.3095 28.2 30.6526 28.0358L20.3895 25.2443C19.7053 25.0527 19.3221 24.3685 19.4863 23.6843L22.4968 12.4085Z" fill="#34A853"/>
<path fill-rule="evenodd" clip-rule="evenodd" d="M26.7664 21.7411C26.7937 21.7411 26.8211 21.7684 26.8211 21.7684C26.8485 21.7684 26.8758 21.7684 26.8758 21.7958L30.3243 22.7263C30.6253 22.8084 30.9537 22.6169 31.0358 22.3158C31.0632 22.2611 31.0632 22.2063 31.0632 22.1242L31.6927 19.7432C31.6927 19.7158 31.6927 19.7158 31.7201 19.6884C31.7201 19.6611 31.7201 19.6611 31.7201 19.6337L32.3495 17.2253C32.3495 17.1979 32.3495 17.1979 32.3769 17.1706C32.3769 17.1432 32.3769 17.1158 32.4043 17.0884C32.459 16.7874 32.2674 16.5137 31.9937 16.4316C31.939 16.4042 31.8843 16.4042 31.8295 16.4042L25.0422 14.5706C24.7411 14.4884 24.4127 14.68 24.3306 14.9811L23.6737 17.499L22.9895 20.1263C22.9074 20.4274 23.099 20.7558 23.4001 20.8379C23.4274 20.8379 23.4548 20.8379 23.4548 20.8379L26.7664 21.7411ZM31.0906 17.3895L28.7643 16.76L28.3811 18.1558L30.7074 18.7853L31.0906 17.3895ZM26.5201 20.4548L26.9032 18.9495L24.6043 18.3474L24.2211 19.8527L26.5201 20.4548ZM30.0232 21.4127L27.6969 20.7832L28.1074 19.2779L30.4337 19.9074L30.0232 21.4127ZM27.5874 16.4316L27.2043 17.8274L24.8779 17.2253L25.2611 15.8295L27.5874 16.4316Z" fill="white"/>
<path d="M19.5684 43.5537C20.6264 43.5537 21.4842 42.7082 21.4842 41.6653C21.4842 40.6223 20.6264 39.7769 19.5684 39.7769C18.5103 39.7769 17.6526 40.6223 17.6526 41.6653C17.6526 42.7082 18.5103 43.5537 19.5684 43.5537Z" fill="#FBFBFB"/>
<path d="M30.7896 43.5537C31.8476 43.5537 32.7054 42.7082 32.7054 41.6653C32.7054 40.6223 31.8476 39.7769 30.7896 39.7769C29.7315 39.7769 28.8738 40.6223 28.8738 41.6653C28.8738 42.7082 29.7315 43.5537 30.7896 43.5537Z" fill="#FBFBFB"/>
<path d="M36.8104 27.0232L35.6883 33.5095C35.5515 34.2211 34.9767 34.659 34.3199 34.659H17.8988L17.5704 36.52H33.2252C34.0462 36.5747 34.6209 37.1769 34.6209 37.9158C34.5662 38.7369 33.9641 39.3116 33.2252 39.3116H15.9009C14.9704 39.2295 14.3957 38.4632 14.5052 37.6421L15.2441 33.5916L14.122 22.2063L10.9199 21.1937C10.1262 20.8926 9.82515 20.1811 9.98936 19.4421C10.2904 18.6758 11.0294 18.32 11.7409 18.5116L15.8462 19.8253C16.3936 20.0442 16.722 20.4821 16.8041 21.0295L17.0504 23.3011L35.6062 25.3811C36.4273 25.5726 36.8925 26.2569 36.8104 27.0232Z" fill="white"/>
<path d="M37.9873 39.5032C37.9873 35.4527 41.2441 32.1684 45.2399 32.1684H47.4294C51.4526 32.1684 54.682 35.4527 54.682 39.5032V42.1305C54.682 46.1811 51.4252 49.4653 47.4294 49.4653H45.2399C41.2168 49.4653 37.9873 46.1811 37.9873 42.1305V39.5032Z" fill="url(#paint1_linear_1780_6134)"/>
<path fill-rule="evenodd" clip-rule="evenodd" d="M47.4568 33.2358H45.2673C41.8189 33.2358 39.0273 36.0548 39.0273 39.5305V42.1579C39.0273 45.6337 41.8189 48.4527 45.2673 48.4527H47.4568C50.9052 48.4527 53.6968 45.6337 53.6968 42.1579V39.5305C53.6694 36.0548 50.8778 33.2358 47.4568 33.2358ZM45.2673 32.1684C41.2441 32.1684 38.0146 35.4527 38.0146 39.5032V42.1305C38.0146 46.1811 41.2715 49.4653 45.2673 49.4653H47.4568C51.4799 49.4653 54.7094 46.1811 54.7094 42.1305V39.5032C54.7094 35.4527 51.4525 32.1684 47.4568 32.1684H45.2673Z" fill="white"/>
<path d="M48.2505 38.7916C47.7305 38.299 47.0737 38.0253 46.3621 38.0253C45.0758 38.0253 43.9811 38.9011 43.68 40.1326C43.6527 40.2147 43.5705 40.2968 43.4884 40.2968H42.5305C42.3937 40.2968 42.3116 40.1874 42.339 40.0505C42.6948 38.1347 44.3642 36.6842 46.3621 36.6842C47.4569 36.6842 48.4695 37.1221 49.1811 37.8337L49.7832 37.2316C50.0295 36.9853 50.4674 37.1495 50.4674 37.5053V39.7495C50.4674 39.9684 50.3032 40.16 50.0842 40.16H47.8674C47.5116 40.16 47.3474 39.7221 47.5937 39.4758L48.2505 38.7916ZM42.64 41.5011H44.8569C45.2127 41.5011 45.3769 41.939 45.1305 42.1853L44.4463 42.8695C44.9663 43.3621 45.6232 43.6358 46.3348 43.6358C47.6211 43.6358 48.7158 42.76 49.0169 41.5284C49.0442 41.4463 49.1263 41.3642 49.2084 41.3642H50.1663C50.3032 41.3642 50.3853 41.4737 50.3579 41.6105C50.0021 43.5263 48.3327 44.9769 46.3348 44.9769C45.24 44.9769 44.2274 44.539 43.5158 43.8274L42.9137 44.4295C42.6674 44.6758 42.2295 44.5116 42.2295 44.1558V41.9116C42.2569 41.6653 42.4211 41.5011 42.64 41.5011Z" fill="white"/>
<defs>
<linearGradient id="paint0_linear_1780_6134" x1="25.3358" y1="-13.7729" x2="26.183" y2="76.6919" gradientUnits="userSpaceOnUse">
<stop stop-color="#B38BE2"/>
<stop offset="1" stop-color="#5C1BAB"/>
</linearGradient>
<linearGradient id="paint1_linear_1780_6134" x1="46.3551" y1="32.178" x2="46.3551" y2="49.4765" gradientUnits="userSpaceOnUse">
<stop stop-color="#25CD52"/>
<stop offset="1" stop-color="#34A853"/>
</linearGradient>
</defs>
</svg>
