<svg width="59" height="67" viewBox="0 0 59 67" fill="none" xmlns="http://www.w3.org/2000/svg">
<path d="M28.1744 58.25C39.6394 58.25 48.9337 48.9558 48.9337 37.4907C48.9337 26.0256 39.6394 16.7314 28.1744 16.7314C16.7093 16.7314 7.41504 26.0256 7.41504 37.4907C7.41504 48.9558 16.7093 58.25 28.1744 58.25Z" fill="url(#paint0_radial_120_11046)"/>
<path d="M30.1447 40.1163C30.0774 40.1163 30.009 40.1051 29.9418 40.0815C29.6241 39.9694 29.4572 39.6216 29.5689 39.3037C29.6112 39.1835 30.6273 36.3446 32.5783 35.2181C34.4659 34.1284 35.7948 35.4368 36.1476 36.0327C36.3193 36.3229 36.2234 36.6971 35.9333 36.8688C35.6444 37.0397 35.2722 36.9454 35.0995 36.6583C34.9854 36.4736 34.3623 35.5976 33.1887 36.2751C31.6315 37.1742 30.7293 39.6839 30.7203 39.7091C30.6316 39.9596 30.396 40.1163 30.1447 40.1163Z" fill="url(#paint1_linear_120_11046)"/>
<path d="M39.5549 34.6834C39.4877 34.6834 39.4194 34.6722 39.3524 34.6487C39.0343 34.5369 38.8673 34.1885 38.9791 33.8704C39.0214 33.7502 40.0375 30.9113 41.9886 29.7848C43.876 28.695 45.205 30.0035 45.5578 30.5994C45.7295 30.8896 45.6336 31.2638 45.3435 31.4355C45.0546 31.6064 44.6824 31.5122 44.5097 31.225C44.3956 31.0403 43.7726 30.164 42.5989 30.8418C41.301 31.5912 40.3771 33.5744 40.1307 34.2753C40.0423 34.5263 39.8066 34.6834 39.5549 34.6834Z" fill="url(#paint2_linear_120_11046)"/>
<path d="M58.6556 46.4793C58.6071 44.6703 57.8444 42.742 56.6154 41.3208C55.4127 39.9297 54.059 39.3608 53.1592 39.865C53.1591 39.865 53.1585 39.8648 53.1585 39.8648L53.1446 39.8728C53.1434 39.8735 53.1421 39.8741 53.141 39.8747C53.1398 39.8754 53.1386 39.8763 53.1374 39.877L49.9998 41.6919C49.9998 41.6919 51.1079 42.1495 52.2313 42.9652L53.2053 43.782C53.7003 44.2686 54.1251 44.8301 54.3606 45.4558C54.413 45.5949 54.4616 45.7542 54.5066 45.9269C54.5066 45.9269 54.5065 45.9269 54.5065 45.9268L54.7656 47.2746C54.8346 47.7471 54.8856 48.2102 54.9212 48.5789C54.8504 48.5443 54.7792 48.5064 54.7073 48.4649L42.7845 41.5813C42.6717 41.5161 42.5688 41.513 42.4901 41.5598L42.4895 41.5594L39.3525 43.3741L54.1669 51.7033L57.31 49.8854C57.3103 49.8852 57.3107 49.8849 57.3111 49.8848L57.3151 49.8825L57.3152 49.8824C57.6824 49.6714 57.992 49.3334 58.2225 48.8726C58.5358 48.2473 58.6815 47.442 58.6556 46.4793Z" fill="#7D36C9"/>
<path d="M46.8348 45.9335C46.174 45.9335 45.5753 46.198 45.1377 46.6266L49.1979 48.9094C49.2389 48.7327 49.2612 48.5489 49.2612 48.3598C49.2611 47.0197 48.1749 45.9335 46.8348 45.9335Z" fill="url(#paint3_radial_120_11046)"/>
<path d="M55.3285 47.5077C55.3622 47.7853 55.3829 48.0617 55.3902 48.3342C55.4161 49.2969 55.1396 50.0615 54.8265 50.6869C54.6133 51.1129 54.3593 51.4334 54.0645 51.6455L54.1673 51.7033L57.3104 49.8854C57.3108 49.8852 57.3112 49.8849 57.3116 49.8848L57.3155 49.8825L57.3157 49.8824C57.3344 49.8715 57.3531 49.8602 57.3716 49.8487C57.345 48.6635 56.4693 47.6882 55.3285 47.5077Z" fill="url(#paint4_radial_120_11046)"/>
<path d="M54.507 45.8501C54.3213 45.7151 54.1204 45.5118 53.9082 45.2141C53.4685 44.5973 53.2572 43.9941 53.1598 43.4974C52.5705 42.9503 51.9259 42.638 51.4821 42.4709C51.0471 42.3736 50.5758 42.3971 50.2438 42.7677C49.4535 43.6499 49.6979 44.8469 50.1519 46.499C50.6061 48.151 53.1115 48.9654 53.1115 48.9654L54.9468 47.9035C54.8812 47.3704 54.7522 46.6845 54.507 45.8501Z" fill="#964CE6"/>
<path d="M58.3416 44.5231C58.0027 43.3571 57.4059 42.2342 56.6162 41.3208C56.4376 41.1142 56.2557 40.9263 56.0724 40.7568C55.8122 41.1435 55.6602 41.609 55.6602 42.1101C55.6602 43.4501 56.7464 44.5364 58.0864 44.5364C58.1726 44.5365 58.2577 44.5319 58.3416 44.5231Z" fill="url(#paint5_radial_120_11046)"/>
<path d="M43.1081 41.7679C43.0613 41.9561 43.0361 42.1527 43.0361 42.3554C43.0361 43.6954 44.1224 44.7816 45.4624 44.7816C46.1172 44.7816 46.711 44.5217 47.1475 44.1001L43.1081 41.7679Z" fill="url(#paint6_radial_120_11046)"/>
<path d="M51.5774 51.4664L39.6546 44.5828C39.408 44.4403 39.208 44.0583 39.208 43.7295C39.208 43.4006 39.408 43.2494 39.6546 43.3919L51.5774 50.2754C52.737 50.9449 53.7801 50.7158 54.2997 49.6776C54.5412 49.1952 54.6534 48.5694 54.6332 47.8175C54.597 46.4658 54.049 45.0809 53.13 44.0181C52.2463 42.9962 51.2283 42.5559 50.5969 42.9225C50.1699 43.1703 49.9076 43.9579 49.9589 44.8376C49.9912 45.3915 50.1596 46.2339 50.7779 47.1013C51.7923 48.5244 52.5478 47.7971 52.6305 47.7094C52.7842 47.5408 53.0644 47.6614 53.2572 47.9777C53.4502 48.2939 53.4812 48.6878 53.3276 48.8564C53.0184 49.1956 52.3442 49.5003 51.5033 49.0148C51.1316 48.8003 50.7273 48.4313 50.3076 47.8424C49.5777 46.8183 49.1375 45.6027 49.0685 44.419C48.9936 43.134 49.3636 42.0609 50.0111 41.685C50.9108 41.163 52.2748 41.7307 53.4856 43.1311C54.7144 44.5522 55.4771 46.4806 55.5257 48.2896C55.5516 49.2523 55.406 50.0576 55.0927 50.683C54.4192 52.0293 53.0721 52.3294 51.5774 51.4664Z" fill="#6B00BC"/>
<path d="M31.5146 16.6796L10.9967 1.07265C10.6334 0.796304 10.113 1.07061 10.1355 1.52643L11.4936 29.0738C11.5709 31.5744 13.3597 33.3167 16.5683 33.4881C21.6519 33.7598 28.3724 29.9861 31.5791 25.0594C33.9132 21.473 33.7412 18.265 31.5146 16.6796Z" fill="url(#paint7_linear_120_11046)"/>
<path d="M31.5146 16.6796L10.9967 1.07265C10.6334 0.796304 10.113 1.07061 10.1355 1.52643L11.4936 29.0738C11.5709 31.5744 13.3597 33.3167 16.5683 33.4881C21.6519 33.7598 28.3724 29.9861 31.5791 25.0594C33.9132 21.473 33.7412 18.265 31.5146 16.6796Z" fill="url(#paint8_radial_120_11046)"/>
<path d="M30.9848 16.2768L28.4929 14.3813C29.5624 15.8354 29.3954 18.1124 27.7694 20.6106C25.0938 24.7216 19.4859 27.8704 15.244 27.6437C13.2218 27.5356 11.876 26.6792 11.3105 25.3677L11.4795 28.7948C12.0551 30.4348 13.63 31.5167 16.0657 31.6467C20.9039 31.9052 27.3 28.3138 30.3518 23.6249C32.2991 20.633 32.4135 17.9178 30.9848 16.2768Z" fill="url(#paint9_linear_120_11046)"/>
<path d="M30.9848 16.2768L28.4929 14.3813C29.5624 15.8354 29.3954 18.1124 27.7694 20.6106C25.0938 24.7216 19.4859 27.8704 15.244 27.6437C13.2218 27.5356 11.876 26.6792 11.3105 25.3677L11.4795 28.7948C12.0551 30.4348 13.63 31.5167 16.0657 31.6467C20.9039 31.9052 27.3 28.3138 30.3518 23.6249C32.2991 20.633 32.4135 17.9178 30.9848 16.2768Z" fill="url(#paint10_radial_120_11046)"/>
<path d="M27.5824 13.6885L24.9478 11.6844C24.7442 12.4129 24.3869 13.1892 23.8652 13.9907C21.4064 17.7685 16.2533 20.662 12.3553 20.4537C11.8823 20.4284 11.4496 20.3585 11.0586 20.2486L11.2322 23.7691C11.777 23.9695 12.4042 24.0943 13.1102 24.1321C17.5562 24.3697 23.4338 21.0693 26.2382 16.7606C26.9399 15.6828 27.3826 14.644 27.5824 13.6885Z" fill="url(#paint11_linear_120_11046)"/>
<path d="M27.5824 13.6885L24.9478 11.6844C24.7442 12.4129 24.3869 13.1892 23.8652 13.9907C21.4064 17.7685 16.2533 20.662 12.3553 20.4537C11.8823 20.4284 11.4496 20.3585 11.0586 20.2486L11.2322 23.7691C11.777 23.9695 12.4042 24.0943 13.1102 24.1321C17.5562 24.3697 23.4338 21.0693 26.2382 16.7606C26.9399 15.6828 27.3826 14.644 27.5824 13.6885Z" fill="url(#paint12_radial_120_11046)"/>
<path d="M22.5575 9.86656L19.735 7.71973C17.685 11.2066 13.9593 13.4027 10.7148 13.2831L10.9008 17.0556C15.3726 17.2658 20.2141 14.09 22.5575 9.86656Z" fill="url(#paint13_linear_120_11046)"/>
<path d="M22.5575 9.86656L19.735 7.71973C17.685 11.2066 13.9593 13.4027 10.7148 13.2831L10.9008 17.0556C15.3726 17.2658 20.2141 14.09 22.5575 9.86656Z" fill="url(#paint14_radial_120_11046)"/>
<path d="M16.7325 5.43526L13.7107 3.13678C12.8715 4.38041 11.645 4.96055 10.3184 5.22784L10.5175 9.26687C13.06 8.91023 15.1206 7.73323 16.7325 5.43526Z" fill="url(#paint15_linear_120_11046)"/>
<path d="M16.7325 5.43526L13.7107 3.13678C12.8715 4.38041 11.645 4.96055 10.3184 5.22784L10.5175 9.26687C13.06 8.91023 15.1206 7.73323 16.7325 5.43526Z" fill="url(#paint16_radial_120_11046)"/>
<path d="M36.1087 4.80124L32.8067 11.1103C32.4186 11.8518 32.4186 12.6908 32.8067 12.9841L33.7317 13.6834C34.1197 13.9769 34.749 13.6135 35.137 12.872L38.4391 6.56298C38.8271 5.82149 38.8271 4.98249 38.4391 4.68917L37.514 3.98981C37.126 3.69648 36.4967 4.05976 36.1087 4.80124Z" fill="url(#paint17_radial_120_11046)"/>
<path d="M15.7766 57.3315L12.4746 63.6406C12.0866 64.382 12.0866 65.221 12.4746 65.5144L13.3997 66.2137C13.7877 66.507 14.417 66.1439 14.805 65.4023L18.107 59.0933C18.4951 58.3518 18.4951 57.5128 18.107 57.2194L17.182 56.5201C16.7938 56.2268 16.1647 56.59 15.7766 57.3315Z" fill="url(#paint18_linear_120_11046)"/>
<path d="M6.49081 25.1846L3.1888 22.6884C2.80076 22.3951 2.17148 22.7584 1.78344 23.4998L0.85841 25.2673C0.470374 26.0088 0.470374 26.8478 0.85841 27.1411L4.16042 29.6373C4.54846 29.9308 5.17774 29.5674 5.56578 28.8259L6.49081 27.0584C6.87885 26.3169 6.87885 25.4779 6.49081 25.1846Z" fill="url(#paint19_linear_120_11046)"/>
<path d="M6.93686 45.5445L2.26714 48.2406C1.71828 48.5574 1.27344 49.4075 1.27344 50.1393V51.8836C1.27344 52.6153 1.7184 52.9517 2.26714 52.6349L6.93686 49.9388C7.48573 49.622 7.93056 48.7719 7.93056 48.0401V46.2958C7.93056 45.564 7.48573 45.2277 6.93686 45.5445Z" fill="url(#paint20_radial_120_11046)"/>
<path d="M53.0326 16.8507L48.3628 19.5468C47.814 19.8636 47.3691 20.7137 47.3691 21.4455V23.1898C47.3691 23.9216 47.8141 24.2579 48.3628 23.941L53.0326 21.2449C53.5814 20.9281 54.0263 20.078 54.0263 19.3462V17.6019C54.0264 16.8701 53.5814 16.5338 53.0326 16.8507Z" fill="url(#paint21_linear_120_11046)"/>
<defs>
<radialGradient id="paint0_radial_120_11046" cx="0" cy="0" r="1" gradientUnits="userSpaceOnUse" gradientTransform="translate(35.1113 26.7385) scale(29.6539 29.6539)">
<stop stop-color="#FCF3B3"/>
<stop offset="0.5" stop-color="#F7E041"/>
<stop offset="1" stop-color="#FFA538"/>
</radialGradient>
<linearGradient id="paint1_linear_120_11046" x1="32.8835" y1="38.6254" x2="31.3295" y2="35.9339" gradientUnits="userSpaceOnUse">
<stop stop-color="#8B451C"/>
<stop offset="1" stop-color="#401B06"/>
</linearGradient>
<linearGradient id="paint2_linear_120_11046" x1="42.2936" y1="33.1922" x2="40.7397" y2="30.5007" gradientUnits="userSpaceOnUse">
<stop stop-color="#8B451C"/>
<stop offset="1" stop-color="#401B06"/>
</linearGradient>
<radialGradient id="paint3_radial_120_11046" cx="0" cy="0" r="1" gradientUnits="userSpaceOnUse" gradientTransform="translate(47.0789 47.1272) rotate(-22.1023) scale(2.14667 2.15359)">
<stop offset="0.79" stop-color="#FFA0F9"/>
<stop offset="1" stop-color="#FF94F8"/>
</radialGradient>
<radialGradient id="paint4_radial_120_11046" cx="0" cy="0" r="1" gradientUnits="userSpaceOnUse" gradientTransform="translate(55.6213 49.1907) rotate(-35.5232) scale(1.95991 2.66719)">
<stop offset="0.79" stop-color="#FFA0F9"/>
<stop offset="1" stop-color="#FF94F8"/>
</radialGradient>
<radialGradient id="paint5_radial_120_11046" cx="0" cy="0" r="1" gradientUnits="userSpaceOnUse" gradientTransform="translate(56.9224 42.273) rotate(-38.4203) scale(1.65077 2.3129)">
<stop offset="0.79" stop-color="#FFA0F9"/>
<stop offset="1" stop-color="#FF94F8"/>
</radialGradient>
<radialGradient id="paint6_radial_120_11046" cx="0" cy="0" r="1" gradientUnits="userSpaceOnUse" gradientTransform="translate(44.9716 42.9768) rotate(-22.4148) scale(2.14514 2.17607)">
<stop offset="0.79" stop-color="#FFA0F9"/>
<stop offset="1" stop-color="#FF94F8"/>
</radialGradient>
<linearGradient id="paint7_linear_120_11046" x1="9.0271" y1="20.4646" x2="25.3725" y2="12.1636" gradientUnits="userSpaceOnUse">
<stop stop-color="#0072BC"/>
<stop offset="0.0203" stop-color="#0375BE"/>
<stop offset="0.3436" stop-color="#369DD9"/>
<stop offset="0.6262" stop-color="#5ABAED"/>
<stop offset="0.8545" stop-color="#71CCFA"/>
<stop offset="1" stop-color="#79D3FE"/>
</linearGradient>
<radialGradient id="paint8_radial_120_11046" cx="0" cy="0" r="1" gradientUnits="userSpaceOnUse" gradientTransform="translate(20.5762 13.0135) rotate(-38.2105) scale(13.609 19.0345)">
<stop stop-color="#F382DD"/>
<stop offset="0.3" stop-color="#DC69D0"/>
<stop offset="0.93" stop-color="#A32CB0"/>
<stop offset="1" stop-color="#9D25AD"/>
</radialGradient>
<linearGradient id="paint9_linear_120_11046" x1="13.5186" y1="28.3617" x2="29.0739" y2="20.462" gradientUnits="userSpaceOnUse">
<stop stop-color="#FF4757"/>
<stop offset="1" stop-color="#FF7A85"/>
</linearGradient>
<radialGradient id="paint10_radial_120_11046" cx="0" cy="0" r="1" gradientUnits="userSpaceOnUse" gradientTransform="translate(21.0266 21.3124) rotate(-25.2246) scale(11.0044 12.209)">
<stop stop-color="#FFEAFF"/>
<stop offset="0.4" stop-color="#FFC1FB"/>
<stop offset="0.79" stop-color="#FFA0F9"/>
<stop offset="1" stop-color="#FF94F8"/>
</radialGradient>
<linearGradient id="paint11_linear_120_11046" x1="12.8264" y1="21.7659" x2="24.713" y2="15.0638" gradientUnits="userSpaceOnUse">
<stop stop-color="#FF4757"/>
<stop offset="1" stop-color="#FF7A85"/>
</linearGradient>
<radialGradient id="paint12_radial_120_11046" cx="0" cy="0" r="1" gradientUnits="userSpaceOnUse" gradientTransform="translate(18.8373 16.6825) rotate(-22.9922) scale(8.65781 8.9589)">
<stop stop-color="#FFEAFF"/>
<stop offset="0.4" stop-color="#FFC1FB"/>
<stop offset="0.79" stop-color="#FFA0F9"/>
<stop offset="1" stop-color="#FF94F8"/>
</radialGradient>
<linearGradient id="paint13_linear_120_11046" x1="11.9818" y1="15.2815" x2="20.6836" y2="10.5935" gradientUnits="userSpaceOnUse">
<stop stop-color="#FF4757"/>
<stop offset="1" stop-color="#FF7A85"/>
</linearGradient>
<radialGradient id="paint14_radial_120_11046" cx="0" cy="0" r="1" gradientUnits="userSpaceOnUse" gradientTransform="translate(16.2898 11.4687) rotate(-23.9447) scale(6.25 6.67151)">
<stop stop-color="#FFEAFF"/>
<stop offset="0.4" stop-color="#FFC1FB"/>
<stop offset="0.79" stop-color="#FFA0F9"/>
<stop offset="1" stop-color="#FF94F8"/>
</radialGradient>
<linearGradient id="paint15_linear_120_11046" x1="11.0046" y1="8.09675" x2="16.0809" y2="5.83854" gradientUnits="userSpaceOnUse">
<stop stop-color="#FF4757"/>
<stop offset="1" stop-color="#FF7A85"/>
</linearGradient>
<radialGradient id="paint16_radial_120_11046" cx="0" cy="0" r="1" gradientUnits="userSpaceOnUse" gradientTransform="translate(13.3378 5.5958) rotate(-28.2714) scale(3.51276 4.21693)">
<stop stop-color="#FFEAFF"/>
<stop offset="0.4" stop-color="#FFC1FB"/>
<stop offset="0.79" stop-color="#FFA0F9"/>
<stop offset="1" stop-color="#FF94F8"/>
</radialGradient>
<radialGradient id="paint17_radial_120_11046" cx="0" cy="0" r="1" gradientUnits="userSpaceOnUse" gradientTransform="translate(35.4411 7.85824) rotate(-41.8656) scale(4.02497 5.75685)">
<stop stop-color="#FFEAFF"/>
<stop offset="0.4" stop-color="#FFC1FB"/>
<stop offset="0.79" stop-color="#FFA0F9"/>
<stop offset="1" stop-color="#FF94F8"/>
</radialGradient>
<linearGradient id="paint18_linear_120_11046" x1="14.4891" y1="65.373" x2="13.4959" y2="58.4077" gradientUnits="userSpaceOnUse">
<stop stop-color="#2F97F7"/>
<stop offset="1" stop-color="#79D3FE"/>
</linearGradient>
<linearGradient id="paint19_linear_120_11046" x1="1.05387" y1="26.5358" x2="5.5167" y2="27.4916" gradientUnits="userSpaceOnUse">
<stop stop-color="#06DAAE"/>
<stop offset="1" stop-color="#9BF0DF"/>
</linearGradient>
<radialGradient id="paint20_radial_120_11046" cx="0" cy="0" r="1" gradientUnits="userSpaceOnUse" gradientTransform="translate(4.4073 48.3652) rotate(-31.7779) scale(3.77717 4.86626)">
<stop stop-color="#FFEAFF"/>
<stop offset="0.4" stop-color="#FFC1FB"/>
<stop offset="0.79" stop-color="#FFA0F9"/>
<stop offset="1" stop-color="#FF94F8"/>
</radialGradient>
<linearGradient id="paint21_linear_120_11046" x1="48.2144" y1="23.4663" x2="54.0977" y2="20.592" gradientUnits="userSpaceOnUse">
<stop stop-color="#2F97F7"/>
<stop offset="1" stop-color="#79D3FE"/>
</linearGradient>
</defs>
</svg>
