<svg id="Layer_1" height="512" viewBox="0 0 24 24" width="512" xmlns="http://www.w3.org/2000/svg" data-name="Layer 1"><path d="m12 0c-6.617 0-12 5.383-12 12s5.383 12 12 12 12-5.383 12-12-5.383-12-12-12zm0 22c-5.514 0-10-4.486-10-10s4.486-10 10-10 10 4.486 10 10-4.486 10-10 10zm-2-12c0 .378.271.698.644.76l3.041.507c1.342.223 2.315 1.373 2.315 2.733 0 1.654-1.346 3-3 3v2h-2v-2c-1.654 0-3-1.346-3-3h2c0 .552.448 1 1 1h2c.552 0 1-.448 1-1 0-.378-.271-.698-.644-.76l-3.041-.507c-1.342-.223-2.315-1.373-2.315-2.733 0-1.654 1.346-3 3-3v-2h2v2c1.654 0 3 1.346 3 3h-2c0-.551-.448-1-1-1h-2c-.552 0-1 .449-1 1z"/></svg>